<?xml version="1.0" standalone="no"?>
<!DOCTYPE svg PUBLIC "-//W3C//DTD SVG 1.1//EN" "http://www.w3.org/Graphics/SVG/1.1/DTD/svg11.dtd" >
<svg xmlns="http://www.w3.org/2000/svg">
<metadata>Generated by IcoMoon</metadata>
<defs>
<font id="icomoon" horiz-adv-x="1024">
<font-face units-per-em="1024" ascent="960" descent="-64" />
<missing-glyph horiz-adv-x="1024" />
<glyph unicode="&#x20;" horiz-adv-x="512" d="" />
<glyph unicode="&#xe900;" glyph-name="addi-2" horiz-adv-x="1328" d="M1206.101 205.903h106.762v316.367h-106.762zM1328.004 629.722c-0.344 37.592-30.899 67.934-68.54 67.934-37.855 0-68.543-30.688-68.543-68.543s30.686-68.541 68.54-68.543v0c37.892 0.173 68.543 30.93 68.543 68.846 0 0.107 0 0.214-0.001 0.321v-0.017zM978.146 304.343c-0.199-0.002-0.435-0.003-0.67-0.003-41.307 0-74.794 33.486-74.794 74.794s33.486 74.794 74.794 74.794c41.306 0 74.792-33.485 74.794-74.791v0c0-0.097 0-0.211 0-0.325 0-41.007-33.145-74.273-74.106-74.468h-0.019zM1159.296 379.137v301.734h-107.025v-140.739c-20.795 12.837-46.001 20.444-72.983 20.444-0.401 0-0.802-0.001-1.203-0.005h0.061c-100.175 0-181.383-81.208-181.383-181.383s81.208-181.383 181.383-181.383v0c0.504-0.005 1.099-0.008 1.695-0.008 99.116 0 179.465 80.349 179.465 179.465 0 0.681-0.004 1.36-0.011 2.040l0.001-0.103zM580.774 304.343c-0.199-0.002-0.435-0.003-0.67-0.003-41.307 0-74.794 33.486-74.794 74.794s33.486 74.794 74.794 74.794c41.306 0 74.792-33.485 74.794-74.791v0c0-0.097 0-0.211 0-0.325 0-41.007-33.145-74.273-74.106-74.468h-0.019zM761.924 379.137v301.734h-107.025v-140.739c-20.795 12.837-46.001 20.444-72.983 20.444-0.401 0-0.802-0.001-1.203-0.005h0.061c-100.175 0-181.383-81.208-181.383-181.383s81.208-181.383 181.383-181.383v0c0.504-0.005 1.099-0.008 1.695-0.008 99.116 0 179.465 80.349 179.465 179.465 0 0.681-0.004 1.36-0.011 2.040l0.001-0.103zM181.149 468.261c-33.792-0.092-62.606-21.306-73.942-51.131l-0.182-0.545v100.47c-0.039 0.896-0.061 1.948-0.061 3.004 0 40.949 33.196 74.145 74.145 74.145s74.145-33.196 74.145-74.145c0-1.056-0.022-2.108-0.066-3.154l0.005 0.15v-100.47c-11.508 30.345-40.283 51.548-74.027 51.676h-0.016zM255.273 359.713v-152.227h106.762v302.322c0 2.415 0.264 4.811 0.264 7.246 0 100.046-81.104 181.15-181.15 181.15s-181.15-81.104-181.15-181.15v0-309.467h106.762v153.079c11.267-30.792 40.315-52.372 74.402-52.372 33.326 0 61.834 20.626 73.456 49.808l0.187 0.534z" />
<glyph unicode="&#xe901;" horiz-adv-x="1328" d="M1175.999 448c0-282.77-229.23-512-512-512s-512 229.23-512 512c0 282.77 229.23 512 512 512s512-229.23 512-512z" />
<glyph unicode="&#xe902;" horiz-adv-x="1328" d="M662.382 460.342c-44.91-0.116-83.206-28.304-98.278-67.938l-0.242-0.724v133.497c-0.009 0.485-0.013 1.056-0.013 1.629 0 54.411 44.109 98.52 98.52 98.52s98.52-44.109 98.52-98.52c0-0.573-0.005-1.145-0.015-1.715l0.001 0.086v-133.497c-15.304 40.354-53.591 68.542-98.478 68.662h-0.015zM760.902 316.12v-202.105h141.851v401.516c0 3.207 0.35 6.387 0.35 9.62 0 0.004 0 0.009 0 0.013 0 132.946-107.774 240.721-240.721 240.721-132.942 0-240.713-107.767-240.721-240.707v-411.218h141.851v203.426c15.035-40.844 53.609-69.448 98.865-69.448 44.243 0 82.101 27.339 97.601 66.045l0.25 0.708z" />
<glyph unicode="&#xe903;" horiz-adv-x="1328" d="M1175.196-63.544h-1023.544v1023.544h1023.544z" />
<glyph unicode="&#xe904;" horiz-adv-x="1328" d="M1175.196 405.629v553.915h-1023.544v-1023.544h1023.544v298.651c-2.281 0 0 170.978 0 170.978z" />
<glyph unicode="&#xe905;" horiz-adv-x="1328" d="M1049.804 462.58h77.525v180.103h-84.369v-24.888l-15.97 24.888h-72.921v-31.898l-13.688 31.898h-134.476c-4.563 0-9.125-2.281-13.688-2.281s-6.844-2.281-11.407-4.563-6.844-2.281-11.407-4.563v11.407h-385.218l-11.407-29.616-11.407 29.616h-91.255v-31.898l-13.688 31.898h-72.879l-31.898-77.525v-102.578h52.43l9.125 24.888h18.251l9.125-24.888h401.188v22.814l15.97-22.814h111.704v13.688c2.281-2.281 6.844-2.281 9.125-4.563s6.844-2.281 9.125-4.563c3.384-1.495 7.33-2.366 11.479-2.366 0.777 0 1.548 0.031 2.31 0.091l-0.101-0.006h82.046l9.125 24.888h18.251l9.125-24.888h111.704v22.814zM1175.196 234.444v168.904h-626.918l-15.97-22.814-15.97 22.814h-182.177v-180.103h182.509l15.97 22.814 15.97-22.814h113.653v38.742h-4.563c0.794-0.021 1.729-0.032 2.666-0.032 13.773 0 26.957 2.522 39.116 7.129l-0.759-0.253v-47.867h82.046v22.814l15.97-22.814h339.674c14.803 3.561 27.727 8.256 39.935 14.194l-1.152-0.505z" />
<glyph unicode="&#xe906;" horiz-adv-x="1328" d="M1136.413 277.956h-61.555v-24.888h59.274c0.987-0.092 2.134-0.144 3.294-0.144 20.847 0 37.746 16.9 37.746 37.746 0 0.401-0.006 0.8-0.019 1.198l0.001-0.058c0.069 0.786 0.108 1.701 0.108 2.625 0 17.617-14.281 31.898-31.898 31.898-1.648 0-3.267-0.125-4.848-0.366l0.177 0.022h-27.335c-6.3 0-11.407 5.107-11.407 11.407s5.107 11.407 11.407 11.407v0h52.388l11.407 24.888h-61.514c-1.109 0.117-2.396 0.184-3.698 0.184-20.376 0-36.939-16.324-37.325-36.608l-0.001-0.036c-0.069-0.786-0.108-1.701-0.108-2.625 0-17.617 14.281-31.898 31.898-31.898 1.648 0 3.267 0.125 4.848 0.366l-0.177-0.022h27.335c0.192 0.012 0.416 0.019 0.641 0.019 5.956 0 10.785-4.828 10.785-10.785 0-0.226-0.007-0.45-0.021-0.672l0.001 0.030c2.281-9.125-2.281-13.688-11.407-13.688zM1024.709 277.956h-61.514v-24.888h59.274c0.987-0.092 2.134-0.144 3.294-0.144 20.847 0 37.746 16.9 37.746 37.746 0 0.401-0.006 0.8-0.019 1.198l0.001-0.058c0.069 0.786 0.108 1.701 0.108 2.625 0 17.617-14.281 31.898-31.898 31.898-1.648 0-3.267-0.125-4.848-0.366l0.177 0.022h-27.335c-6.3 0-11.407 5.107-11.407 11.407s5.107 11.407 11.407 11.407v0h52.43l11.407 24.888h-61.555c-1.109 0.117-2.396 0.184-3.698 0.184-20.376 0-36.939-16.324-37.325-36.608l-0.001-0.036c-0.069-0.786-0.108-1.701-0.108-2.625 0-17.617 14.281-31.898 31.898-31.898 1.648 0 3.267 0.125 4.848 0.366l-0.177-0.022h27.335c0.192 0.012 0.416 0.019 0.641 0.019 5.956 0 10.785-4.828 10.785-10.785 0-0.226-0.007-0.45-0.021-0.672l0.001 0.030c0.302-0.94 0.476-2.022 0.476-3.145 0-5.865-4.754-10.619-10.619-10.619-0.446 0-0.885 0.027-1.316 0.081l0.052-0.005zM944.944 350.918v24.888h-95.734v-120.829h95.734v24.888h-68.399v24.888h66.118v24.888h-66.118v22.814h68.399v-2.281zM789.936 350.918c11.407 0 15.97-6.844 15.97-13.688s-4.563-13.688-15.97-13.688h-34.179v29.616zM755.757 298.488h13.688l36.46-43.304h34.303l-41.023 45.627c18.085 2.384 31.898 17.702 31.898 36.247 0 0.075 0 0.15-0.001 0.225v-0.012c0.011 0.34 0.017 0.739 0.017 1.14 0 20.847-16.9 37.746-37.746 37.746-1.16 0-2.307-0.052-3.44-0.155l0.146 0.011h-63.961v-120.829h27.335l2.281 43.304zM682.587 335.156c0.062-0.502 0.098-1.084 0.098-1.674 0-7.949-6.444-14.393-14.393-14.393-0.59 0-1.171 0.035-1.743 0.104l0.069-0.007h-36.46v31.732h34.179c0.599 0.078 1.292 0.123 1.995 0.123 8.848 0 16.046-7.068 16.255-15.866v-0.019zM602.823 376.179v-120.829h27.335v41.023h36.46c0.96-0.082 2.079-0.128 3.207-0.128 22.152 0 40.111 17.958 40.111 40.111 0 0.366-0.005 0.731-0.015 1.095l0.001-0.054c0.020 0.467 0.031 1.015 0.031 1.566 0 21.809-17.68 39.488-39.488 39.488-0.551 0-1.099-0.011-1.644-0.034l0.078 0.003-66.118-2.281zM561.8 255.349h34.179l-47.701 61.389 47.867 59.274h-34.179l-29.616-38.742-29.616 38.742h-34.22l47.867-59.274-47.867-59.274h34.179l29.616 38.742 29.616-41.023zM459.387 350.918v24.888h-95.734v-120.829h95.734v24.888h-68.399v24.888h66.118v24.888h-66.118v22.814h68.399zM1013.302 565.2l47.867-72.962h34.179v120.829h-27.335v-79.765l-6.844 11.407-43.263 68.358h-36.668v-120.829h27.335v82.088zM894.796 567.44l9.125 24.888 9.125-24.888 11.407-27.335h-41.023l11.407 27.335zM942.663 492.196h29.616l-52.43 120.871h-36.46l-52.43-120.829h29.616l11.407 24.888h59.481zM814.989 492.196l11.407 24.888h-6.927c-0.462-0.025-1.002-0.039-1.546-0.039-16.883 0-30.57 13.687-30.57 30.57 0 1.286 0.079 2.553 0.233 3.797l-0.015-0.149v2.281c-0.176 1.234-0.277 2.659-0.277 4.107 0 16.883 13.687 30.57 30.57 30.57 0.564 0 1.125-0.015 1.682-0.045l-0.078 0.003h29.616v24.888h-31.898c-0.821 0.044-1.782 0.069-2.749 0.069-30.079 0-54.462-24.384-54.462-54.462 0-1.718 0.080-3.418 0.235-5.096l-0.016 0.215v-2.281c-0.258-1.959-0.405-4.225-0.405-6.525 0-29.162 23.641-52.803 52.803-52.803 0.843 0 1.681 0.020 2.514 0.059l-0.118-0.004zM712.411 492.196h27.335v118.589h-27.335zM653.137 588.179c11.407 0 15.97-6.844 15.97-13.688s-4.563-13.688-15.97-13.688h-34.179v29.45zM618.958 535.75h13.688l36.46-43.304h34.22l-41.023 45.627c18.085 2.384 31.898 17.702 31.898 36.247 0 0.075 0 0.15-0.001 0.225v-0.012c0.011 0.34 0.017 0.739 0.017 1.14 0 20.847-16.9 37.746-37.746 37.746-1.16 0-2.307-0.052-3.44-0.155l0.146 0.011h-63.837v-120.829h27.335l2.281 43.304zM568.81 588.179v24.888h-95.734v-120.829h95.734v24.888h-68.399v24.888h66.035v24.888h-66.035v22.814h68.399zM361.413 492.445h24.888l34.179 98.016v-98.016h27.335v120.622h-45.627l-27.335-82.046-27.169 82.046h-45.627v-120.829h27.335v98.016l31.898-98.016zM213.207 567.44l9.125 24.888 9.125-24.888 11.407-27.335h-41.065l11.407 27.335zM261.074 492.196h29.616l-52.43 120.871h-34.179l-52.43-120.829h29.616l11.407 24.888h59.274l9.125-24.888z" />
<glyph unicode="&#xe907;" glyph-name="arrow-left" horiz-adv-x="640" d="M560.079 960c0.004 0 0.009 0 0.015 0 17.68 0 32.013-14.333 32.013-32.013 0-8.843-3.586-16.85-9.384-22.643l-457.568-457.547 457.568-457.546c5.56-5.751 8.987-13.595 8.987-22.24 0-17.68-14.333-32.013-32.013-32.013-8.644 0-16.489 3.426-22.249 8.995l-480.18 480.18c-5.791 5.793-9.373 13.794-9.373 22.633s3.581 16.84 9.373 22.633l480.189 480.189c5.791 5.787 13.788 9.367 22.622 9.369v0z" />
<glyph unicode="&#xe908;" glyph-name="arrow-right" horiz-adv-x="800" d="M159.922-64.001c-0.004 0-0.009 0-0.015 0-17.68 0-32.013 14.333-32.013 32.013 0 8.843 3.586 16.85 9.384 22.643l457.568 457.547-457.568 457.546c-5.56 5.751-8.987 13.595-8.987 22.24 0 17.68 14.333 32.013 32.013 32.013 8.644 0 16.489-3.426 22.249-8.995l480.18-480.18c5.791-5.793 9.373-13.794 9.373-22.633s-3.581-16.84-9.373-22.633l-480.189-480.189c-5.791-5.787-13.788-9.367-22.622-9.369v0z" />
<glyph unicode="&#xe909;" glyph-name="arrow-up" horiz-adv-x="1072" d="M1047.798 208.017c0-0.004 0-0.009 0-0.015 0-17.673-14.327-32-32-32-8.84 0-16.843 3.585-22.634 9.38l-457.366 457.387-457.365-457.387c-5.749-5.558-13.59-8.983-22.231-8.983-17.673 0-32 14.327-32 32 0 8.641 3.425 16.482 8.991 22.24l479.991 479.991c5.791 5.789 13.789 9.369 22.624 9.369s16.833-3.58 22.624-9.369l480-480c5.785-5.789 9.363-13.783 9.365-22.613v0z" />
<glyph unicode="&#xe90a;" glyph-name="arrowup" horiz-adv-x="1072" d="M24.202 687.983c0 0.004 0 0.009 0 0.015 0 17.673 14.327 32 32 32 8.84 0 16.843-3.585 22.634-9.38l457.366-457.387 457.365 457.387c5.749 5.558 13.59 8.983 22.231 8.983 17.673 0 32-14.327 32-32 0-8.641-3.425-16.482-8.991-22.24l-479.991-479.991c-5.791-5.789-13.789-9.369-22.624-9.369s-16.833 3.58-22.624 9.369l-480 480c-5.785 5.789-9.363 13.783-9.365 22.613v0z" />
<glyph unicode="&#xe90b;" glyph-name="bag" horiz-adv-x="1328" d="M249.695 696.006v-609.151c0-41.657 33.77-75.427 75.427-75.427v0h677.753c41.657 0 75.427 33.77 75.427 75.427v0 609.151h-828.608zM174.268 771.433h979.462v-684.579c0-83.315-67.54-150.854-150.854-150.854v0h-677.753c-83.315 0-150.854 67.54-150.854 150.854v0zM927.448 771.433v37.714c0 41.657-33.77 75.427-75.427 75.427v0h-376.043c-41.657 0-75.427-33.77-75.427-75.427v0-37.714h526.898zM421.933 620.577h-96.811v188.568c0 83.315 67.54 150.854 150.854 150.854v0h376.081c83.315 0 150.854-67.54 150.854-150.854v0-188.568h-96.999v75.427h-483.98z" />
<glyph unicode="&#xe90c;" glyph-name="Borrar" horiz-adv-x="656" d="M633.38 628.966h-610.76c-12.493 0-22.62 10.127-22.62 22.62s10.127 22.62 22.62 22.62v0h610.76c12.493 0 22.62-10.127 22.62-22.62s-10.127-22.62-22.62-22.62v0zM497.655 86.069h-339.311c-49.972 0-90.483 40.511-90.483 90.483v0 475.035c0 12.493 10.127 22.62 22.62 22.62v0h79.173v45.242c0 49.972 40.511 90.483 90.483 90.483v0h135.724c49.972 0 90.483-40.511 90.483-90.483v0-45.242h79.173c12.493 0 22.62-10.127 22.62-22.62v0-475.035c0-49.972-40.511-90.483-90.483-90.483v0zM113.103 628.966v-452.415c0-24.986 20.256-45.242 45.242-45.242v0h339.311c24.986 0 45.242 20.256 45.242 45.242v0 452.415h-79.173c-12.493 0-22.62 10.127-22.62 22.62v0 67.862c0 24.986-20.256 45.242-45.242 45.242v0h-135.724c-24.986 0-45.242-20.256-45.242-45.242v0-67.862c0-12.493-10.127-22.62-22.62-22.62v0z" />
<glyph unicode="&#xe90d;" glyph-name="close-1" d="M1009.768 877.092l-926.871-926.871c-18.963-18.961-49.704-18.961-68.663 0s-18.961 49.704 0 68.663v0l926.871 926.871c18.963 18.961 49.704 18.961 68.663 0s18.963-49.704 0-68.663v0zM14.231 877.117l926.871-926.871c18.963-18.961 49.704-18.961 68.663 0s18.963 49.704 0 68.663v0l-926.871 926.871c-18.963 18.961-49.704 18.961-68.663 0s-18.961-49.704 0-68.663v0z" />
<glyph unicode="&#xe90e;" glyph-name="close" d="M0.039 911.238l48.762 48.762 975.238-975.238-48.762-48.762-975.238 975.238zM0.039-15.238l975.238 975.238 48.762-48.762-975.238-975.238-48.762 48.762z" />
<glyph unicode="&#xe90f;" horiz-adv-x="1328" d="M587.719-63.976c-1.481-0.015-3.231-0.024-4.984-0.024-281.695 0-510.523 226.35-514.527 507.094l-0.004 0.377c-0.061 2.937-0.096 6.4-0.096 9.87 0 279.82 226.839 506.659 506.659 506.659 4.554 0 9.095-0.060 13.62-0.18l-0.669 0.014h133.58c281.593 0 538.592-210.966 538.592-516.363 0-279.187-257.124-507.447-538.592-507.447h-133.58z" />
<glyph unicode="&#xe910;" horiz-adv-x="1328" d="M587.719-63.976c-1.481-0.015-3.231-0.024-4.984-0.024-281.695 0-510.523 226.35-514.527 507.094l-0.004 0.377c-0.061 2.937-0.096 6.4-0.096 9.87 0 279.82 226.839 506.659 506.659 506.659 4.554 0 9.095-0.060 13.62-0.18l-0.669 0.014h7.465c3.692 0.095 8.041 0.149 12.401 0.149 284.813 0 515.699-230.886 515.699-515.699 0-0.286 0-0.572-0.001-0.857v0.044c0-279.187-246.507-507.447-528.058-507.447h-7.465z" />
<glyph unicode="&#xe911;" horiz-adv-x="1328" d="M588.881 917.492c-257.547-1.67-465.685-210.839-465.685-468.62 0-258.817 209.812-468.629 468.629-468.629 258.814 0 468.624 209.807 468.629 468.62v0c-0.801 258.99-210.937 468.632-470.038 468.632-0.54 0-1.080-0.001-1.62-0.003h0.084z" />
<glyph unicode="&#xe912;" horiz-adv-x="1328" d="M481.843 171.748v554.31c-113.029-43.424-191.796-151.091-191.796-277.155s78.767-233.731 189.771-276.469l2.026-0.686zM887.808 448.821c-0.363 126.033-79.057 233.593-189.943 276.587l-2.030 0.692v-554.476c112.917 43.662 191.615 151.214 191.972 277.194v0.045z" />
<glyph unicode="&#xe913;" glyph-name="delete-1" horiz-adv-x="1328" d="M409.924-63.999c-51.84 0.227-93.777 42.305-93.777 94.177 0 0.153 0 0.306 0.001 0.458v-0.024 715.13h-81.812c-21.513 0-38.953 17.44-38.953 38.953s17.44 38.953 38.953 38.953v0h254.623v41.741c-0.003 0.271-0.004 0.592-0.004 0.912 0 51.583 41.682 93.431 93.202 93.699h163.932c51.545-0.268 93.228-42.116 93.228-93.699 0-0.321-0.002-0.641-0.005-0.961v0.049-41.741h254.601c0.007 0 0.015 0 0.023 0 21.357 0 38.671-17.313 38.671-38.671 0-0.099 0-0.198-0.001-0.297v0.015c-0.055-21.491-17.462-38.898-38.948-38.953h-82.11v-715.141c0.001-0.126 0.001-0.275 0.001-0.424 0-51.876-41.943-93.956-93.767-94.177h-0.021zM394.044 30.613c-0.008-0.194-0.013-0.423-0.013-0.652 0-8.8 7.085-15.945 15.863-16.042h508.137c8.786 0.097 15.872 7.242 15.872 16.042 0 0.229-0.005 0.457-0.014 0.684l0.001-0.032v715.13h-539.846zM566.366 865.39v-41.741h194.744v41.741c0.024 0.325 0.038 0.704 0.038 1.087 0 8.527-6.838 15.457-15.329 15.607h-163.92c-8.639-0.245-15.549-7.307-15.549-15.983 0-0.25 0.006-0.499 0.017-0.746l-0.001 0.035zM727.994 198.369v326.975c0 21.516 17.442 38.959 38.959 38.959s38.959-17.442 38.959-38.959v0-326.975c0-21.516-17.442-38.959-38.959-38.959s-38.959 17.442-38.959 38.959v0zM522.065 198.369v326.975c0 21.513 17.44 38.953 38.953 38.953s38.953-17.44 38.953-38.953v0-326.975c0-21.513-17.44-38.953-38.953-38.953s-38.953 17.44-38.953 38.953v0z" />
<glyph unicode="&#xe914;" horiz-adv-x="1328" d="M953.628 844.929c-159.958 153.428-419.291 153.428-579.256 0-147.271-141.264-160.578-366.043-30.921-522.406l320.549-386.523 320.549 386.523c129.657 156.343 116.35 381.129-30.921 522.406z" />
<glyph unicode="&#xe915;" horiz-adv-x="1328" d="M417.823 734.152h46.731v-60.208h37.034v-35.924h-37.034v-130.706c0-8.086 1.335-13.493 3.935-16.163s7.448-4.005 14.618-4.005c1.194 0 2.809 0.068 4.778 0.212q3.056 0.205 4.427 0.208l9.276 0.422v-37.528c-1.125-0.141-2.67-0.28-4.707-0.422-13.493-1.337-22.908-2.037-28.46-2.037q-27.723 0-39.142 11.736c-7.66 7.799-11.454 21.786-11.454 41.81v136.472h-31.766v35.924h31.764v60.208z" />
<glyph unicode="&#xe916;" horiz-adv-x="1328" d="M728.499 589.249v-141.248h-47.152v145.958c0 13.491-3.515 23.753-10.472 30.919-7.025 7.097-17.075 10.681-30.076 10.681q-26.77 0-41.741-15.459-14.864-15.389-14.897-43.008v-129.097h-47.153v225.947h45.531v-33.677c7.485 11.040 17.343 19.928 28.882 26.074l0.432 0.21c10.949 5.759 23.925 9.139 37.69 9.139 0.337 0 0.674-0.002 1.010-0.006h-0.051q41.955 0 60.017-19.251 18.022-19.187 17.988-67.184z" />
<glyph unicode="&#xe917;" horiz-adv-x="1328" d="M934.397 605.893h-43.703c-0.808 10.491-4.979 18.491-12.575 24.007q-11.502 8.269-32.344 8.269c-11.154 0-19.97-2.083-26.496-6.321-6.521-4.165-9.748-9.748-9.748-16.741-0.004-0.144-0.006-0.313-0.006-0.483 0-6.41 3.070-12.102 7.819-15.688l0.050-0.036q7.872-6.254 27.977-10.757l27.035-6.122q39.131-9.073 53.656-23.062 14.427-14.018 14.46-39.806 0-33.69-24.207-52.453-24.309-18.651-67.783-18.69-43.165 0-66.768 19.769-23.706 19.871-23.667 56.079h43.908q2.011-19.463 14.391-29.047t36.244-9.547c13.111 0 23.532 2.56 31.269 7.596q11.494 7.572 11.496 20.579c0.010 0.23 0.016 0.5 0.016 0.771 0 5.815-2.635 11.015-6.777 14.47l-0.030 0.024c-4.509 3.763-13.316 7.261-26.293 10.553l-31.868 8.071q-36.321 8.876-51.242 22.857-15.027 14.018-14.994 37.989 0 30.566 22.323 48.417 22.396 17.854 60.787 17.819 40.046 0 63.545-18.626c15.656-12.376 23.526-29.045 23.526-49.891z" />
<glyph unicode="&#xe918;" glyph-name="drawer" d="M1024 913.456h-1024v-93.090h1024v93.090zM1024 494.546h-1024v-93.093h1024v93.093zM1024 75.636h-1024v-93.092h1024v93.092z" />
<glyph unicode="&#xe919;" glyph-name="Estrella-vaca" horiz-adv-x="736" d="M367.955 797.98c8.976-0.001 16.752-5.143 20.544-12.642l0.060-0.131 101.358-204.466 226.426-32.984c11.178-1.654 19.658-11.181 19.658-22.688 0-6.436-2.652-12.251-6.923-16.415l-163.919-159.106 38.671-224.72c0.206-1.155 0.324-2.486 0.324-3.845 0-12.684-10.283-22.966-22.966-22.966-3.928 0-7.625 0.986-10.858 2.724l0.122-0.060-202.497 106.17-202.497-106.17c-3.111-1.677-6.808-2.664-10.736-2.664-12.684 0-22.966 10.283-22.966 22.966 0 1.358 0.118 2.689 0.344 3.982l-0.019-0.137 38.496 224.72-163.651 159.058c-4.275 4.168-6.928 9.984-6.928 16.42 0 11.508 8.48 21.035 19.533 22.673l0.125 0.015 226.426 32.984 101.27 204.51c3.852 7.63 11.627 12.772 20.604 12.774v0zM663.541 509.261l-192.479 27.997c-7.708 1.079-14.108 5.843-17.438 12.423l-0.060 0.131-85.61 173.45-85.96-173.625c-3.391-6.713-9.79-11.476-17.376-12.541l-0.122-0.014-192.479-27.997 139.11-135.086c4.282-4.163 6.938-9.977 6.938-16.412 0-1.373-0.121-2.718-0.353-4.024l0.021 0.138-32.809-190.817 171.963 90.159c3.103 1.658 6.785 2.631 10.696 2.631s7.593-0.974 10.82-2.691l-0.124 0.060 171.963-90.159-32.809 190.817c-0.211 1.169-0.332 2.513-0.332 3.887 0 6.435 2.657 12.249 6.933 16.407l0.005 0.005z" />
<glyph unicode="&#xe91a;" glyph-name="Estrella" horiz-adv-x="736" d="M367.971 789.351c8.755-0.001 16.339-5.016 20.037-12.33l0.059-0.128 98.859-199.424 220.843-32.171c10.902-1.613 19.173-10.905 19.173-22.129 0-6.277-2.587-11.949-6.752-16.010l-159.877-155.183 37.717-219.179c0.201-1.127 0.316-2.425 0.316-3.75 0-12.371-10.029-22.4-22.4-22.4-3.831 0-7.437 0.962-10.59 2.657l0.119-0.059-197.504 103.552-197.504-103.552c-3.034-1.636-6.64-2.598-10.471-2.598-12.371 0-22.4 10.029-22.4 22.4 0 1.325 0.115 2.623 0.336 3.884l-0.019-0.134 37.547 219.179-159.616 155.136c-4.17 4.065-6.757 9.738-6.757 16.015 0 11.224 8.271 20.516 19.051 22.114l0.122 0.015 220.843 32.171 98.773 199.467c3.757 7.442 11.34 12.457 20.096 12.459v0zM656.269 507.751l-187.733 27.307c-7.518 1.052-13.76 5.699-17.008 12.117l-0.059 0.128-83.499 169.173-83.84-169.344c-3.307-6.547-9.549-11.193-16.948-12.232l-0.119-0.014-187.733-27.307 135.68-131.755c4.176-4.060 6.767-9.731 6.767-16.007 0-1.339-0.118-2.651-0.344-3.925l0.020 0.135-32-186.112 167.723 87.936c3.026 1.617 6.618 2.566 10.432 2.566s7.406-0.95 10.553-2.625l-0.121 0.059 167.723-87.936-32 186.112c-0.206 1.14-0.324 2.451-0.324 3.791 0 6.276 2.591 11.947 6.762 16.002l0.005 0.005zM367.971 789.351l110.933-224.683 248.021-36.267-179.456-174.933 42.325-246.784-221.867 116.651-221.781-116.651 42.368 246.955-179.456 174.763 248.021 36.267z" />
<glyph unicode="&#xe91b;" glyph-name="Facebook" horiz-adv-x="960" d="M713.429 779.424h-111.209q-29.729 0-38.538-13.213t-8.809-42.942v-97.996h158.555l-16.516-171.768h-140.938v-517.505h-203.699v515.303h-105.703v173.97h105.703v137.634q0 96.895 53.402 146.994t165.712 50.099h140.938v-180.576h1.101z" />
<glyph unicode="&#xe91c;" glyph-name="favorites" horiz-adv-x="1328" d="M1061.039-63.96c-0.011 0-0.024 0-0.038 0-12.325 0-23.468 5.059-31.466 13.214l-362.363 370.737-362.312-370.73c-8.009-8.186-19.168-13.261-31.512-13.261-24.23 0-43.893 19.553-44.070 43.742v0.017l-6.39 935.861c-0.001 0.092-0.001 0.2-0.001 0.309 0 24.34 19.731 44.071 44.071 44.071 0 0 0.001 0 0.001 0h794.082c24.34 0 44.071-19.731 44.071-44.071v0-935.817c0-24.34-19.731-44.071-44.071-44.071v0zM311.292 871.901l5.377-784.475 318.99 326.35c8.008 8.185 19.167 13.26 31.511 13.26s23.503-5.075 31.503-13.252l0.008-0.008 318.285-325.645v783.77z" />
<glyph unicode="&#xe91d;" glyph-name="filter-1" horiz-adv-x="1328" d="M885.333 921.777c-101.655-0.161-187.467-67.803-215.048-160.519l-0.406-1.59h-669.882v-124.71h669.882c27.86-94.387 113.75-162.097 215.455-162.097s187.596 67.71 215.052 160.511l0.403 1.586h227.114v124.862h-227.114c-27.983 94.289-113.77 161.923-215.382 162.109h-0.021zM885.333 597.56c-55.106 0-99.778 44.673-99.778 99.778s44.673 99.778 99.778 99.778c55.106 0 99.778-44.673 99.778-99.778v0c-0.057-55.083-44.696-99.721-99.773-99.778h-0.006zM442.665 422.986c-101.655-0.161-187.467-67.803-215.048-160.519l-0.406-1.59h-227.114v-124.71h227.114c27.86-94.387 113.75-162.097 215.455-162.097s187.596 67.71 215.052 160.511l0.403 1.586h669.882v124.761h-669.882c-27.988 94.305-113.8 161.947-215.436 162.109h-0.019zM442.665 98.769c-55.041 0.086-99.627 44.725-99.627 99.778 0 55.106 44.673 99.778 99.778 99.778 55.089 0 99.749-44.643 99.778-99.725v-0.003c0-0.015 0-0.032 0-0.051 0-55.162-44.717-99.879-99.879-99.879-0.018 0-0.035 0-0.053 0h0.003z" />
<glyph unicode="&#xe91e;" glyph-name="filter-11" horiz-adv-x="1328" d="M727.999 960h426.667v-1024h-426.667v1024zM173.332 960h426.667v-1024h-426.667v1024z" />
<glyph unicode="&#xe91f;" glyph-name="filter-2-1" horiz-adv-x="1328" d="M450.664 960h426.667v-1024h-426.667v1024z" />
<glyph unicode="&#xe920;" glyph-name="filter-2" horiz-adv-x="1328" d="M450.664 960h426.667v-1024h-426.667v1024z" />
<glyph unicode="&#xe921;" glyph-name="filter-4" horiz-adv-x="1328" d="M-0.002 832.93h288.697v-769.859h-288.697v769.859zM346.434 832.93h288.697v-769.859h-288.697v769.859zM692.871 832.93h288.697v-769.859h-288.697v769.859zM1039.307 832.93h288.697v-769.859h-288.697v769.859z" />
<glyph unicode="&#xe922;" glyph-name="filter" horiz-adv-x="1328" d="M885.333 921.777c-101.655-0.161-187.467-67.803-215.048-160.519l-0.406-1.59h-669.882v-124.71h669.882c27.86-94.387 113.75-162.097 215.455-162.097s187.596 67.71 215.052 160.511l0.403 1.586h227.114v124.862h-227.114c-27.983 94.289-113.77 161.923-215.382 162.109h-0.021zM885.333 597.56c-55.106 0-99.778 44.673-99.778 99.778s44.673 99.778 99.778 99.778c55.106 0 99.778-44.673 99.778-99.778v0c-0.057-55.083-44.696-99.721-99.773-99.778h-0.006zM442.665 422.986c-101.655-0.161-187.467-67.803-215.048-160.519l-0.406-1.59h-227.114v-124.71h227.114c27.86-94.387 113.75-162.097 215.455-162.097s187.596 67.71 215.052 160.511l0.403 1.586h669.882v124.761h-669.882c-27.988 94.305-113.8 161.947-215.436 162.109h-0.019zM442.665 98.769c-55.041 0.086-99.627 44.725-99.627 99.778 0 55.106 44.673 99.778 99.778 99.778 55.089 0 99.749-44.643 99.778-99.725v-0.003c0-0.015 0-0.032 0-0.051 0-55.162-44.717-99.879-99.879-99.879-0.018 0-0.035 0-0.053 0h0.003z" />
<glyph unicode="&#xe923;" glyph-name="fitlter-3" horiz-adv-x="1328" d="M11.2 960h384v-1024h-384v1024zM472 960h384v-1024h-384v1024zM932.8 960h384v-1024h-384v1024z" />
<glyph unicode="&#xe924;" glyph-name="global-1" horiz-adv-x="1328" d="M664 959.999c-0.051 0-0.112 0-0.173 0-145.517 0-276.8-60.943-369.719-158.698l-0.205-0.217c-8.793-9.217-17.657-18.54-25.709-28.251-72.374-87.651-116.27-201.147-116.27-324.894s43.896-237.242 116.967-325.764l-0.697 0.87c8.122-9.853 16.88-19.176 25.709-28.251v0c93.221-97.905 224.549-158.794 370.096-158.794s276.876 60.889 369.898 158.584l0.198 0.21c8.793 9.217 17.657 18.54 25.709 28.251v0c72.374 87.651 116.27 201.147 116.27 324.894s-43.896 237.242-116.967 325.764l0.697-0.87c-8.122 9.853-16.88 19.176-25.709 28.251-93.129 97.973-224.417 158.916-369.939 158.916-0.055 0-0.111 0-0.166 0h0.009zM525.284 899.753c-44.452-43.828-79.623-96.944-102.381-156.212l-1.020-3.022c-36.198 11.595-67.195 25.009-96.569 41.025l2.879-1.437c53.38 54.052 119.609 95.289 193.738 118.765l3.352 0.916zM301.955 751.431c30.375-17.562 65.648-33.46 102.56-45.775l4.125-1.193c-23.783-70.432-38.138-151.608-39.509-235.939l-0.009-0.668h-176.82c4.384 108.705 45.020 207.145 110.058 284.357l-0.582-0.71zM192.48 428.374h176.82c1.379-85 15.734-166.176 41.161-242.282l-1.644 5.675c-41.036-13.505-76.309-29.403-109.53-48.473l2.844 1.505c-64.453 76.503-105.089 174.943-109.446 282.728l-0.029 0.919zM328.335 115.91c26.494 14.578 57.491 27.991 89.801 38.495l3.889 1.093c23.778-62.29 58.948-115.405 103.349-159.183l0.051-0.051c-77.48 24.391-143.71 65.629-197.042 119.632l-0.048 0.049zM644.471-22.77c-75.856 10.594-142.353 82.636-185.401 189.11 55.274 14.776 118.984 23.872 184.614 25.132l0.787 0.012zM644.471 230.824c-71.222-1.342-139.494-11.491-204.548-29.402l5.798 1.361c-22.286 67.169-35.74 144.562-37.036 224.911l-0.008 0.643h235.795zM644.471 467.749h-235.795c1.302 81.004 14.757 158.409 38.611 231.101l-1.565-5.511c59.26-16.553 127.531-26.702 197.962-28.028l0.789-0.012zM644.471 704.64c-66.417 1.272-130.129 10.368-191.025 26.402l5.623-1.258c43.048 106.474 109.475 178.374 185.401 189.11zM999.983 780.213c-26.494-14.578-57.491-27.991-89.801-38.495l-3.889-1.093c-23.778 62.29-58.948 115.405-103.349 159.183l-0.051 0.051c77.48-24.391 143.71-65.629 197.042-119.632l0.048-0.049zM683.846 918.893c75.856-10.594 142.353-82.636 185.401-189.11-55.274-14.776-118.984-23.872-184.614-25.132l-0.787-0.012zM683.846 665.299c71.22 1.337 139.492 11.486 204.545 29.401l-5.795-1.361c22.289-67.18 35.742-144.586 37.036-224.947l0.008-0.643h-235.795zM683.846 428.374h235.795c-1.304-80.992-14.758-158.385-38.611-231.065l1.565 5.51c-59.259 16.549-127.529 26.697-197.959 28.028l-0.792 0.012zM683.846-22.77v214.113c66.417-1.272 130.129-10.368 191.024-26.402l-5.623 1.258c-43.295-106.509-109.687-178.374-185.543-189.11zM802.856-3.771c44.38 43.789 79.501 96.843 102.239 156.036l1.020 3.021c36.199-11.596 67.195-25.010 96.57-41.025l-2.88 1.437c-53.38-54.052-119.609-95.289-193.738-118.765l-3.352-0.916zM1026.186 144.551c-30.386 17.566-65.671 33.465-102.597 45.776l-4.123 1.192c23.788 70.433 38.143 151.609 39.509 235.942l0.008 0.666h176.82c-4.39-108.703-45.025-207.143-110.058-284.357l0.583 0.71zM1135.661 467.608h-176.82c-1.374 85-15.73 166.176-41.161 242.281l1.644-5.674c41.048 13.501 76.334 29.399 109.565 48.473l-2.844-1.504c64.45-76.503 105.086-174.943 109.445-282.726l0.030-0.92z" />
<glyph unicode="&#xe925;" glyph-name="global" d="M512 960c-282.769 0-512-229.231-512-512s229.231-512 512-512c282.771 0 512 229.229 512 512s-229.229 512-512 512zM801.696 277.333c9.152 43.151 14.929 88.951 16.809 136.533h135.942c-3.558-47.142-14.532-92.922-32.725-136.533h-120.026zM222.304 618.666c-9.152-43.151-14.929-88.951-16.809-136.533h-135.94c3.558 47.14 14.53 92.922 32.723 136.533h120.026zM731.771 618.666c10.255-43.693 16.425-89.444 18.432-136.533h-204.070v136.533h185.638zM546.133 686.933v199.827c15.563-4.529 30.98-12.128 46.11-22.795 28.354-19.989 55.479-50.782 78.443-89.052 15.874-26.455 29.602-55.91 41.062-87.983h-165.615zM353.314 774.916c22.963 38.27 50.086 69.065 78.443 89.052 15.127 10.667 30.547 18.266 46.11 22.795v-199.829h-165.615c11.462 32.070 25.19 61.525 41.062 87.983zM477.866 618.666v-136.533h-204.068c2.005 47.089 8.177 92.841 18.43 136.533h185.638zM102.28 277.333c-18.193 43.612-29.165 89.391-32.723 136.533h135.94c1.879-47.582 7.657-93.382 16.809-136.533h-120.026zM273.798 413.866h204.068v-136.533h-185.638c-10.253 43.691-16.425 89.444-18.43 136.533zM477.866 209.066v-199.829c-15.561 4.529-30.98 12.13-46.11 22.795-28.356 19.989-55.482 50.784-78.443 89.052-15.874 26.458-29.6 55.913-41.065 87.983h165.617zM670.686 121.083c-22.963-38.268-50.089-69.062-78.443-89.052-15.13-10.665-30.547-18.266-46.11-22.795v199.829h165.617c-11.462-32.070-25.19-61.525-41.065-87.983zM546.133 277.333v136.533h204.068c-2.005-47.089-8.177-92.843-18.432-136.533h-185.636zM818.504 482.133c-1.879 47.582-7.657 93.382-16.809 136.533h120.026c18.193-43.612 29.167-89.393 32.725-136.533h-135.942zM886.035 686.933h-102.293c-19.881 62.679-47.334 117.647-80.337 161.523 45.372-21.696 86.462-50.79 122.362-86.69 22.912-22.91 43.053-47.934 60.269-74.833zM198.233 761.766c35.902 35.902 76.992 64.994 122.362 86.69-33.005-43.876-60.454-98.844-80.337-161.523h-102.291c17.214 26.899 37.357 51.923 60.267 74.833zM137.967 209.066h102.291c19.883-62.679 47.334-117.647 80.339-161.525-45.372 21.696-86.462 50.79-122.362 86.692-22.912 22.91-43.055 47.934-60.269 74.833zM825.766 134.233c-35.9-35.902-76.992-64.996-122.362-86.692 33.005 43.876 60.457 98.846 80.337 161.525h102.293c-17.216-26.899-37.357-51.923-60.269-74.833z" />
<glyph unicode="&#xe926;" glyph-name="hand" horiz-adv-x="1328" d="M1147.678 959.999h-890.27c-0.049 0-0.108 0.001-0.166 0.001-12.647 0-22.898-10.252-22.898-22.898 0-6.95 3.097-13.179 7.986-17.378l0.030-0.026 312.175-271.219c4.869-4.222 7.93-10.419 7.93-17.33 0-6.182-2.45-11.793-6.432-15.913l-210.302-218.742c-4.175-4.354-10.041-7.060-16.538-7.060-5.902 0-11.284 2.233-15.344 5.901l0.020-0.018-164.151 147.206c-4.045 3.639-9.426 5.864-15.326 5.864-12.679 0-22.957-10.279-22.957-22.957 0-6.778 2.938-12.872 7.61-17.074l0.021-0.019 107.624-96.436v-314.236c0.037-38.033 30.859-68.855 68.889-68.892h228.991l22.702-51.522c10.866-24.484 34.962-41.251 62.975-41.251 10.735 0 20.893 2.462 29.944 6.852l-0.409-0.179 36.507 17.207c0.229 0 11.908-9.814 13.281-10.566 10.114-6.146 22.34-9.785 35.416-9.785 12.805 0 24.796 3.488 35.072 9.568l-0.32-0.175 31.11 18.286c12.658-16.912 32.64-27.741 55.152-27.741 12.98 0 25.12 3.6 35.474 9.856l-0.308-0.173 35.1 20.838c11.551-8.865 26.193-14.229 42.086-14.295h0.015c19.427 1.367 37.13 7.734 52.134 17.809l-0.384-0.243c19.642 11.871 32.599 33.066 32.712 57.296v0.016h104.844c38.025 0.056 68.836 30.867 68.892 68.887v791.646c-0.037 38.033-30.859 68.855-68.889 68.892h-0.004zM663.534 914.202h115.965v-126.074h-115.965zM1170.577 99.465c0-12.647-10.252-22.898-22.898-22.898v0h-118.648l-104.68 218.814 44.849-13.085c9.629-2.924 20.695-4.608 32.155-4.608 39.663 0 74.617 20.169 95.163 50.81l0.261 0.413 7 10.501c4.875 7.168 7.783 16.015 7.783 25.542 0 17.905-10.276 33.41-25.251 40.941l-0.263 0.12-240.567 119.564c-11.368 5.795-24.557 10.199-38.452 12.517l-0.803 0.111-138.538 22.473c-1.116 0.192-2.402 0.302-3.713 0.302-12.705 0-23.004-10.3-23.004-23.004 0-11.394 8.284-20.852 19.156-22.683l0.135-0.019 138.538-22.473c9.798-1.61 18.591-4.542 26.691-8.647l-0.521 0.239 240.535-119.564-7-10.501c-12.485-18.623-33.452-30.718-57.244-30.718-6.855 0-13.477 1.004-19.724 2.874l0.486-0.125-84.104 24.339-17.305 36.212c-3.783 7.792-11.638 13.069-20.723 13.069-12.683 0-22.964-10.282-22.964-22.964 0-3.597 0.827-7 2.301-10.032l-0.060 0.136 154.599-323.559c0-0.327 0.425-0.589 0.621-0.916v0c1.643-3.078 2.607-6.732 2.607-10.612 0-9.166-5.385-17.074-13.165-20.732l-0.14-0.059-16.029-7.523c-2.851-1.353-6.195-2.144-9.725-2.144-9.013 0-16.82 5.154-20.637 12.677l-0.061 0.132-73.963 150.477c-3.831 7.66-11.617 12.828-20.609 12.828-12.685 0-22.968-10.284-22.968-22.968 0-3.693 0.871-7.182 2.42-10.274l-0.060 0.133 67.355-136.968-31.895-18.94c-3.372-2.064-7.453-3.286-11.82-3.286-9.087 0-16.937 5.292-20.637 12.963l-0.060 0.137-61.074 126.826c-3.796 7.755-11.631 13.003-20.69 13.003-12.683 0-22.963-10.281-22.963-22.963 0-3.622 0.839-7.049 2.333-10.097l-0.060 0.135 46.877-97.352-33.17-19.627c-3.36-2.045-7.423-3.256-11.769-3.256-9.075 0-16.916 5.278-20.622 12.933l-0.060 0.136-42.527 89.534c-3.766 7.825-11.634 13.131-20.739 13.131-12.672 0-22.944-10.273-22.944-22.944 0-3.565 0.813-6.94 2.264-9.951l-0.060 0.137 32.712-68.696-32.483-15.309c-2.895-1.42-6.3-2.251-9.901-2.251-9.357 0-17.402 5.611-20.955 13.652l-0.058 0.146-138.701 314.956c-3.651 8.141-11.684 13.709-21.017 13.709-12.684 0-22.966-10.283-22.966-22.966 0-3.35 0.717-6.533 2.007-9.403l-0.058 0.145 95.782-217.375h-208.64c-12.647 0-22.898 10.252-22.898 22.898v0 273.018l10.632-9.52c12.122-10.95 28.265-17.65 45.972-17.65 19.508 0 37.117 8.132 49.623 21.19l0.024 0.025 210.276 218.749c11.904 12.36 19.236 29.194 19.236 47.741 0 20.721-9.153 39.305-23.635 51.929l-0.082 0.070-265.789 230.917h298.861v-126.074c0.093-25.256 20.541-45.705 45.789-45.798h115.974c25.256 0.093 45.705 20.541 45.798 45.789v126.083h322.381c12.647 0 22.898-10.252 22.898-22.898v0z" />
<glyph unicode="&#xe927;" glyph-name="Instagram" horiz-adv-x="960" d="M480.281 841.7c128.326 0 143.522-0.563 193.989-2.814 46.903-2.064 72.23-9.943 89.115-16.51 22.326-8.63 38.46-19.136 55.157-35.834 16.885-16.885 27.204-32.832 36.021-55.157 6.566-16.885 14.446-42.4 16.51-89.115 2.251-50.655 2.814-65.851 2.814-193.989s-0.563-143.522-2.814-193.989c-2.064-46.903-9.943-72.23-16.51-89.115-8.63-22.326-19.136-38.46-35.834-55.157-16.885-16.885-32.832-27.204-55.157-36.021-16.885-6.566-42.4-14.446-89.115-16.51-50.655-2.251-65.851-2.814-193.989-2.814s-143.522 0.563-193.989 2.814c-46.903 2.064-72.23 9.943-89.115 16.51-22.326 8.63-38.46 19.136-55.157 35.834-16.885 16.885-27.204 32.832-36.021 55.157-6.566 16.885-14.446 42.4-16.51 89.115-2.251 50.655-2.814 65.851-2.814 193.989s0.563 143.522 2.814 193.989c2.064 46.903 9.943 72.23 16.51 89.115 8.63 22.326 19.136 38.46 35.834 55.157 16.885 16.885 32.832 27.204 55.157 36.021 16.885 6.566 42.4 14.446 89.115 16.51 50.467 2.251 65.664 2.814 193.989 2.814zM480.281 928.189c-130.389 0-146.711-0.563-197.929-2.814-51.030-2.251-86.113-10.506-116.506-22.326-31.706-12.382-58.534-28.704-85.175-55.533-26.828-26.641-43.15-53.469-55.533-84.988-11.819-30.581-20.074-65.476-22.326-116.506-2.251-51.405-2.814-67.727-2.814-198.117s0.563-146.711 2.814-197.929c2.251-51.030 10.506-86.113 22.326-116.506 12.382-31.706 28.704-58.534 55.533-85.175 26.641-26.641 53.469-43.15 84.988-55.345 30.581-11.819 65.476-20.074 116.506-22.326 51.218-2.251 67.54-2.814 197.929-2.814s146.711 0.563 197.929 2.814c51.030 2.251 86.113 10.506 116.506 22.326 31.519 12.195 58.347 28.704 84.988 55.345s43.15 53.469 55.345 84.988c11.819 30.581 20.074 65.476 22.326 116.506 2.251 51.218 2.814 67.54 2.814 197.929s-0.563 146.711-2.814 197.929c-2.251 51.030-10.506 86.113-22.326 116.506-11.819 31.894-28.142 58.722-54.97 85.363-26.641 26.641-53.469 43.15-84.988 55.345-30.581 11.819-65.476 20.074-116.506 22.326-51.405 2.439-67.727 3.002-198.117 3.002v0zM480.281 694.614c-136.205 0-246.708-110.503-246.708-246.708s110.503-246.708 246.708-246.708 246.708 110.503 246.708 246.708c0 136.205-110.503 246.708-246.708 246.708zM480.281 287.874c-88.365 0-160.032 71.667-160.032 160.032s71.667 160.032 160.032 160.032c88.365 0 160.032-71.667 160.032-160.032s-71.667-160.032-160.032-160.032zM794.341 704.369c0-31.809-25.787-57.596-57.596-57.596s-57.596 25.787-57.596 57.596c0 31.809 25.787 57.596 57.596 57.596s57.596-25.787 57.596-57.596z" />
<glyph unicode="&#xe928;" glyph-name="jump" horiz-adv-x="1328" d="M1313.099 480.745c0-0.009 0-0.020 0-0.031 0-28.008-22.705-50.713-50.713-50.713s-50.713 22.705-50.713 50.713c0 28.008 22.705 50.713 50.713 50.713v0c27.998 0 50.695-22.687 50.713-50.681v-0.001zM1262.385 420.893c-33.056 0-59.852 26.797-59.852 59.852s26.797 59.852 59.852 59.852c33.056 0 59.852-26.797 59.852-59.852v0c-0.018-33.049-26.804-59.834-59.851-59.852h-0.001zM1262.385 522.288c-22.944 0-41.543-18.6-41.543-41.543s18.6-41.543 41.543-41.543c22.944 0 41.543 18.6 41.543 41.543v0c-0.035 22.93-18.614 41.508-41.54 41.543h-0.004zM7.218 270.239c10.44-0.867 22.584-0.867 33.024-0.867 30.391 0 54.71 11.276 54.71 58.18v451.434h89.345v-444.464c0-121.626-58.861-152.884-131.044-152.884-2.448-0.054-5.334-0.086-8.227-0.086-13.314 0-26.473 0.661-39.448 1.953l1.638-0.132zM1202.533 812.63v-77.449c0-95.386-48.979-147.369-148.702-147.369h-47.244v-224.014h-99.754v596.202h146.936c99.786 0 148.702-51.953 148.702-147.369zM1006.586 874.836v-201.894h47.181c31.754 0 48.979 13.631 48.979 56.228v89.438c0 42.597-17.224 56.228-48.979 56.228zM344.647 843.949v-449.916c0-43.372 19.95-59.079 51.673-59.079s51.705 15.645 51.705 59.079v449.916h94.301v-443.844c0-97.276-50.776-152.854-148.702-152.854s-148.702 55.578-148.702 152.854v443.844zM782.884 895.934l-59.233-480.926-65.398 480.926h124.631zM605.804 304.224v421.074l81.259-421.074h-81.259zM847.445 304.224v421.074l-73.731-421.074h73.731zM7.899 117.975h58.241c63.539 0 82.22-43.588 82.22-88.694 0-50.342-25.651-89.222-82.746-89.222h-57.715zM18.866-50.461h47.895c33.148 0 70.789 18.184 70.789 79.741 0 72.771-46.469 79.245-73.019 79.245h-45.756zM270.667 118.13h10.966v-177.916h-10.966v177.916zM554.719 27.421v-87.207h-9.48v37.888h-0.496c-8.737-25.93-35.905-42.102-67.288-42.102-53.843 0-83.645 41.109-83.645 92.195 0 50.311 30.422 94.178 83.986 94.178 36.649 0 67.783-22.181 74.010-59.295h-10.471c-8.209 30.639-30.979 49.846-63.291 49.846-48.080 0-73.267-40.273-73.267-84.73 0-45.354 24.442-82.746 73.267-82.746 42.349 0 69.023 28.904 67.288 72.523h-65.646v9.294zM666.804 118.13h10.966v-177.916h-10.966v177.916zM802.184 108.681v9.449h136.31v-9.449h-62.796v-168.467h-10.966v168.467h-62.547zM1075.020 117.975l70.261-177.916h-11.71l-22.429 57.095h-85.194l-22.708-57.064h-11.71l71.531 177.885zM1107.673 6.758l-38.136 100.683h-0.496l-39.623-100.683zM1210.556 118.13h10.966v-168.436h100.901v-9.48h-111.867v177.916z" />
<glyph unicode="&#xe929;" glyph-name="key" horiz-adv-x="1328" d="M288.687 159.311c-159.438 0-288.689 129.251-288.689 288.689s129.251 288.689 288.689 288.689c159.438 0 288.689-129.251 288.689-288.689v0c-0.197-159.359-129.33-288.493-288.67-288.689h-0.019zM288.687 678.956c-127.554 0-230.957-103.402-230.957-230.957s103.402-230.957 230.957-230.957c127.554 0 230.957 103.402 230.957 230.957v0c-0.106 127.516-103.442 230.862-230.944 230.983h-0.012zM1299.139 419.266h-750.602c-15.942 0-28.866 12.924-28.866 28.866s12.924 28.866 28.866 28.866v0h750.602c15.942 0 28.866-12.924 28.866-28.866s-12.924-28.866-28.866-28.866v0zM1212.513 217.070c-15.947 0.015-28.874 12.923-28.919 28.862v173.228c0 15.942 12.924 28.866 28.866 28.866s28.866-12.924 28.866-28.866v0-173.224c-0.045-15.906-12.912-28.791-28.806-28.866h-0.007zM1039.316 274.802c-15.947 0.015-28.874 12.923-28.919 28.862v115.496c0 15.95 12.929 28.88 28.88 28.88s28.88-12.929 28.88-28.88v0-115.491c-0.045-15.915-12.927-28.806-28.834-28.866h-0.006z" />
<glyph unicode="&#xe92a;" glyph-name="locator-1" horiz-adv-x="1328" d="M663.994-63.999c-0.029 0-0.063 0-0.097 0-10.795 0-20.444 4.904-26.842 12.605l-0.046 0.057-298.594 360.050c-56.711 67.226-91.176 154.828-91.176 250.48 0 111.798 47.084 212.598 122.503 283.655l0.196 0.183c75.681 72.401 178.511 116.968 291.75 116.968 0.81 0 1.62-0.002 2.43-0.007l-0.125 0.001c0.698 0.004 1.524 0.007 2.351 0.007 113.219 0 216.028-44.568 291.843-117.116l-0.156 0.148c75.627-71.24 122.719-172.050 122.719-283.857 0-95.643-34.46-183.238-91.641-251.046l0.48 0.584-298.594-360.068c-6.463-7.749-16.121-12.645-26.923-12.645-0.028 0-0.056 0-0.084 0h0.004zM663.994 889.847c-0.659 0.004-1.438 0.007-2.217 0.007-94.4 0-180.131-37.122-243.39-97.564l0.134 0.127c-62.191-58.528-100.92-141.379-100.92-233.276 0-78.529 28.282-150.454 75.214-206.142l-0.396 0.482 271.574-327.503 271.609 327.503c46.521 55.207 74.79 127.121 74.79 205.639 0 91.905-38.732 174.765-100.763 233.145l-0.164 0.153c-63.122 60.305-148.846 97.419-243.237 97.419-0.786 0-1.571-0.003-2.356-0.008l0.121 0.001zM668.003 383.009c-0.005 0-0.011 0-0.018 0-96.83 0-175.328 78.496-175.328 175.328s78.496 175.328 175.328 175.328c96.824 0 175.318-78.486 175.328-175.309v-0.001c-0.090-96.792-78.506-175.24-175.279-175.381h-0.014zM668.003 670.547c-0.005 0-0.011 0-0.018 0-61.973 0-112.211-50.239-112.211-112.211s50.239-112.211 112.211-112.211c61.973 0 112.211 50.239 112.211 112.211 0 0.006 0 0.012 0 0.019v-0.001c-0.090 61.917-50.26 112.085-112.167 112.176h-0.009z" />
<glyph unicode="&#xe92b;" horiz-adv-x="1328" d="M139.706 520.407h-0.203c-0.723 0.037-1.57 0.059-2.422 0.059-15.119 0-28.664-6.736-37.798-17.371l-0.056-0.066c-9.776-11.557-14.762-27.714-14.762-48.246 0-19.546 4.987-35.086 14.762-46.271 9.332-10.449 22.844-16.996 37.885-16.996 0.841 0 1.677 0.020 2.508 0.061l-0.117-0.005h0.203c0.703-0.033 1.526-0.051 2.354-0.051 12.71 0 24.398 4.374 33.641 11.699l-0.113-0.086c9.483 7.679 15.992 18.707 17.722 31.259l0.029 0.255h-20.338c-1.218-7.385-5.057-13.707-10.511-18.108l-0.056-0.044c-5.374-4.012-12.147-6.424-19.483-6.424-0.509 0-1.016 0.012-1.52 0.035l0.071-0.003h-1.791c-0.114-0.001-0.248-0.002-0.383-0.002-9.31 0-17.689 3.988-23.521 10.348l-0.021 0.024c-5.989 7.497-9.61 17.115-9.61 27.578 0 0.681 0.015 1.359 0.046 2.033l-0.004-0.096h88.516c0.134 0.904 0.211 1.947 0.211 3.008 0 0.205-0.003 0.41-0.008 0.613l0.001-0.030c0.14 1.265 0.22 2.733 0.22 4.219 0 0.476-0.008 0.949-0.024 1.421l0.002-0.068c0 19.344-4.977 34.502-14.555 45.267-9.776 10.591-23.331 15.988-40.874 15.988zM139.706 466.967h-33.696c0.219 10.148 4.111 19.347 10.394 26.358l-0.034-0.038c5.5 5.573 13.138 9.025 21.582 9.025 0.617 0 1.23-0.018 1.838-0.055l-0.084 0.004h0.594c0.656 0.049 1.42 0.077 2.192 0.077 8.659 0 16.491-3.538 22.131-9.246l0.003-0.003c5.49-6.432 8.83-14.844 8.83-24.036 0-0.734-0.021-1.462-0.063-2.186l0.005 0.1z" />
<glyph unicode="&#xe92c;" horiz-adv-x="1328" d="M317.076 503.177c-3.641 5.749-8.885 10.195-15.102 12.762l-0.215 0.079c-6.594 2.768-14.258 4.376-22.297 4.376-0.678 0-1.353-0.011-2.025-0.034l0.098 0.003c-0.249 0.005-0.543 0.007-0.837 0.007-8.231 0-15.996-1.992-22.841-5.521l0.28 0.131c-7.178-3.87-13.044-9.341-17.268-15.962l-0.111-0.186v21.574h-20.512v-128.806h21.323v71.417c-0.050 0.737-0.078 1.598-0.078 2.465 0 10.052 3.803 19.217 10.048 26.133l-0.030-0.034c6.711 6.205 15.721 10.011 25.618 10.011 0.817 0 1.628-0.026 2.433-0.077l-0.11 0.006c9.327 0 15.931-2.269 19.87-7.038 3.741-4.76 5.793-13.246 5.793-25.672v-77.239h21.525v81.381c0.022 0.826 0.035 1.799 0.035 2.774 0 5.891-0.464 11.674-1.357 17.314l0.081-0.623c-0.773 4.071-2.28 7.687-4.389 10.87l0.068-0.109z" />
<glyph unicode="&#xe92d;" horiz-adv-x="1328" d="M475.387 553.904h21.308v-24.012h-21.308v24.012z" />
<glyph unicode="&#xe92e;" horiz-adv-x="1328" d="M475.387 520.407h21.308v-128.806h-21.308v128.806z" />
<glyph unicode="&#xe92f;" horiz-adv-x="1328" d="M40.362 553.904h-21.308v-33.498h-19.054v-18.465h19.054v-84.244c0-9.737 1.854-16.558 6.001-20.275 3.934-3.92 11.175-5.793 21.106-5.793 2.279 0 4.765 0.212 7.671 0.425 2.689 0.406 5.996 0.825 9.52 1.448v17.973c-2.896-0.208-5.175-0.406-7.038-0.623h-4.557c-0.426-0.056-0.918-0.088-1.418-0.088-2.869 0-5.491 1.057-7.498 2.804l0.014-0.012c-1.631 2.692-2.596 5.946-2.596 9.424 0 0.69 0.038 1.371 0.112 2.042l-0.007-0.083v77.003h22.983v18.465h-22.983z" />
<glyph unicode="&#xe930;" horiz-adv-x="1328" d="M580.669 466.407l-20.005 4.596c-5.733 0.92-10.856 2.955-15.342 5.885l0.151-0.092c-2.465 2.137-4.015 5.272-4.015 8.77 0 0.152 0.003 0.303 0.009 0.453l-0.001-0.022c-0.011 0.211-0.018 0.459-0.018 0.708 0 4.95 2.527 9.31 6.362 11.859l0.052 0.033c4.827 2.813 10.625 4.474 16.811 4.474 0.772 0 1.538-0.026 2.298-0.077l-0.103 0.006c0.543 0.032 1.177 0.051 1.816 0.051 6.701 0 12.926-2.035 18.092-5.521l-0.115 0.073c4.777-3.274 7.898-8.661 8.008-14.784v-0.017h20.193v0.401c0.012 0.326 0.019 0.709 0.019 1.093 0 10.574-5.086 19.961-12.944 25.847l-0.084 0.060c-9.92 6.397-22.037 10.199-35.042 10.199-12.47 0-24.124-3.496-34.035-9.561l0.286 0.163c-7.574-5.668-12.424-14.616-12.424-24.698 0-0.312 0.005-0.623 0.014-0.933l-0.001 0.046c-0.036-0.545-0.057-1.181-0.057-1.821 0-7.73 2.993-14.76 7.883-19.996l-0.016 0.017c4.996-5.006 14-9.206 26.99-12.199l23.21-6.001c5.701-0.869 10.773-3.062 15.053-6.256l-0.088 0.063c2.377-2.376 3.847-5.659 3.847-9.285 0-0.327-0.012-0.651-0.035-0.972l0.002 0.043c0.007-0.174 0.011-0.378 0.011-0.584 0-5.672-3.022-10.639-7.544-13.377l-0.070-0.039c-5.37-3.317-11.879-5.283-18.848-5.283-0.76 0-1.515 0.023-2.264 0.069l0.103-0.005c-0.76-0.061-1.646-0.096-2.539-0.096-7.467 0-14.364 2.44-19.936 6.567l0.091-0.064c-5.276 4.562-8.689 11.155-9.016 18.55l-0.002 0.055h-19.986c0.396-14 4.605-24.62 12.991-32.001 8.598-7.4 20.604-11.204 36.404-11.204 16.206 0 28.805 3.596 37.794 10.62 8.328 6.415 13.641 16.391 13.641 27.607 0 0.564-0.013 1.125-0.040 1.682l0.003-0.079c0.033 0.525 0.052 1.138 0.052 1.756 0 7.948-3.149 15.161-8.267 20.458l0.008-0.008c-5.141 5.175-14.946 9.375-29.356 12.773z" />
<glyph unicode="&#xe931;" horiz-adv-x="1328" d="M446.949 503.177c-3.557 5.75-8.738 10.199-14.9 12.764l-0.21 0.078c-6.668 2.763-14.412 4.368-22.531 4.368-0.594 0-1.185-0.008-1.775-0.026l0.086 0.002c-0.242 0.004-0.527 0.006-0.813 0.006-8.311 0-16.157-1.991-23.086-5.523l0.289 0.134c-7.104-3.979-12.944-9.425-17.265-15.964l-0.114-0.184v21.574h-20.512v-128.806h21.53v71.417c-0.049 0.736-0.078 1.596-0.078 2.462 0 10.053 3.801 19.218 10.043 26.137l-0.031-0.035c6.684 6.2 15.666 10.004 25.537 10.004 0.771 0 1.537-0.023 2.297-0.069l-0.104 0.005c9.529 0 15.931-2.269 19.88-7.038s5.793-13.246 5.793-25.672v-77.239h21.723v81.381c0.014 0.636 0.022 1.386 0.022 2.137 0 6.121-0.535 12.118-1.561 17.945l0.090-0.618c-0.763 4.071-2.268 7.688-4.378 10.868l0.067-0.108z" />
<glyph unicode="&#xe932;" horiz-adv-x="1328" d="M494.32 363.013c0.903 1.043 1.453 2.413 1.453 3.911 0 0.081-0.002 0.162-0.005 0.243v-0.012c0 0.027 0.001 0.060 0.001 0.092 0 1.834-0.891 3.46-2.264 4.469l-0.016 0.011c-1.803 0.918-3.932 1.455-6.187 1.455-0.157 0-0.313-0.003-0.468-0.008l0.023 0.001h-8.689v-22.172h4.128v9.539h4.137l0.42-1.028 4.147-8.511h4.538l-4.963 10.172c1.501 0.081 2.826 0.775 3.74 1.833l0.006 0.007zM490.188 363.853c-0.868-0.405-1.885-0.641-2.957-0.641-0.127 0-0.252 0.003-0.377 0.010l0.018-0.001c-0.227-0.144-0.503-0.229-0.8-0.229-0.079 0-0.156 0.006-0.232 0.018l0.008-0.001h-3.534v7.468h4.557c1.237-0.066 2.373-0.447 3.345-1.064l-0.028 0.017c0.83-0.406 1.236-1.448 1.236-2.896 0.005-0.065 0.008-0.141 0.008-0.218 0-1.007-0.488-1.9-1.24-2.456l-0.008-0.006z" />
<glyph unicode="&#xe933;" horiz-adv-x="1328" d="M499.911 375.434c-1.781 1.815-3.91 3.283-6.279 4.296l-0.128 0.049c-1.949 0.761-4.206 1.277-6.559 1.444l-0.074 0.004h-0.816c-0.128 0.003-0.279 0.005-0.431 0.005-2.537 0-4.95-0.535-7.131-1.498l0.113 0.044c-2.442-0.963-4.519-2.375-6.222-4.15l-0.006-0.006c-1.812-1.787-3.279-3.917-4.296-6.287l-0.049-0.129c-0.916-2.169-1.449-4.691-1.449-7.338 0-0.039 0-0.078 0-0.117v0.006c-0.002-0.11-0.004-0.24-0.004-0.37 0-2.558 0.534-4.992 1.497-7.195l-0.045 0.116c0.918-2.456 2.342-4.538 4.155-6.202l0.012-0.010c1.688-1.954 3.853-3.451 6.317-4.313l0.104-0.032c2.184-1.034 4.744-1.643 7.444-1.656h0.82c2.361 0.155 4.549 0.749 6.532 1.702l-0.106-0.046c2.591 0.903 4.803 2.316 6.613 4.132v0c1.706 1.75 3.103 3.81 4.1 6.086l0.052 0.132c0.917 2.183 1.45 4.72 1.45 7.382 0 0.098-0.001 0.196-0.002 0.294v-0.015c0.001 0.077 0.002 0.169 0.002 0.26 0 2.525-0.534 4.924-1.494 7.093l0.044-0.112c-0.984 2.506-2.397 4.646-4.167 6.431l0.001-0.001zM501.784 355.158c-0.987-2.074-2.235-3.852-3.731-5.387l0.004 0.004c-1.55-1.571-3.41-2.833-5.48-3.687l-0.11-0.040c-1.62-0.567-3.515-1-5.474-1.22l-0.121-0.011h-1.023c-2.315 0.008-4.522 0.459-6.544 1.273l0.119-0.042c-2.052 1.062-3.821 2.302-5.402 3.744l0.019-0.018c-1.568 1.548-2.828 3.402-3.686 5.465l-0.041 0.11c-0.785 1.887-1.241 4.078-1.241 6.377 0 0.017 0 0.034 0 0.051v-0.003c0.010 2.316 0.465 4.523 1.283 6.544l-0.042-0.118c1.046 2.157 2.363 4.004 3.936 5.597l-0.002-0.002c1.416 1.563 3.14 2.82 5.079 3.679l0.096 0.038c1.936 0.785 4.181 1.241 6.532 1.241 0.035 0 0.071 0 0.106 0h0.81c2.131-0.178 4.098-0.693 5.91-1.494l-0.117 0.046c2.094-0.947 3.882-2.201 5.396-3.726l0.001-0.001c1.611-1.453 2.881-3.254 3.693-5.287l0.034-0.096c0.791-1.949 1.25-4.209 1.25-6.577 0-0.019 0-0.039 0-0.059v0.003c0-0.002 0-0.006 0-0.008 0-2.309-0.463-4.509-1.301-6.514l0.041 0.111z" />
<glyph unicode="&#xe934;" horiz-adv-x="1328" d="M787.066 551.964h59.257v-17.538h-18.46v-161.961h-21.009v161.961h-19.792z" />
<glyph unicode="&#xe935;" horiz-adv-x="1328" d="M845.117 477.201q0 37.234 17.142 46.416c4.468 2.318 9.755 3.677 15.359 3.677 0.26 0 0.52-0.003 0.779-0.009l-0.038 0.001q23.973 0 30.606-19.281c2.608-8.427 4.11-18.115 4.11-28.154 0-0.932-0.013-1.861-0.039-2.787l0.003 0.136v-54.159q0-32.228-8.689-42.317c-5.727-6.257-13.93-10.167-23.047-10.167-0.723 0-1.441 0.025-2.152 0.073l0.096-0.005q-23.968 0-30.505 20.406c-2.359 8.552-3.714 18.372-3.714 28.508 0 1.232 0.020 2.459 0.060 3.681l-0.005-0.178zM892.034 481.391q0 21.81-6.223 26.507c-1.71 1.215-3.84 1.943-6.14 1.943-0.175 0-0.349-0.004-0.522-0.013l0.024 0.001c-0.277 0.027-0.6 0.042-0.926 0.042-4.643 0-8.555-3.131-9.74-7.396l-0.017-0.071c-1.559-5.577-2.454-11.98-2.454-18.593 0-0.849 0.015-1.695 0.044-2.538l-0.003 0.122v-64.167q0-22.544 6.334-27.232c1.65-1.211 3.72-1.937 5.96-1.937 0.126 0 0.252 0.002 0.377 0.007l-0.018-0.001h0.406c0.222-0.018 0.48-0.028 0.741-0.028 4.681 0 8.612 3.215 9.705 7.557l0.015 0.069c1.559 5.722 2.455 12.292 2.455 19.072 0 0.877-0.015 1.749-0.045 2.619l0.004-0.126z" />
<glyph unicode="&#xe936;" horiz-adv-x="1328" d="M944.866 512.716c1.703 4.452 4.723 8.082 8.577 10.506l0.088 0.052c3.507 2.209 7.772 3.519 12.344 3.519 0.002 0 0.003 0 0.005 0v0q18.253 0 23.172-18.967c1.961-8.291 3.085-17.81 3.085-27.592 0-0.953-0.011-1.903-0.032-2.851l0.002 0.141v-55.4q0-30.485-7.7-40.99c-4.648-6.409-12.112-10.53-20.539-10.53-0.398 0-0.794 0.009-1.187 0.027l0.056-0.002c-3.925 0.005-7.546 1.306-10.457 3.498l0.044-0.032c-3.109 2.241-5.622 5.115-7.385 8.446l-0.064 0.133v-38.137h-20.917v180.913h20.908zM971.084 481.208v7.637c0.024 0.49 0.038 1.064 0.038 1.642 0 3.483-0.497 6.849-1.423 10.033l0.063-0.253c-0.731 2.21-1.665 4.126-2.815 5.889l0.059-0.096c-1.64 2.24-4.26 3.678-7.216 3.678-0.179 0-0.356-0.005-0.533-0.016l0.024 0.001c-0.234 0.014-0.506 0.022-0.781 0.022-2.628 0-5.086-0.726-7.184-1.988l0.063 0.035q-6.532-4.388-6.532-26.618v-62.709c-0.058-1.052-0.091-2.284-0.091-3.524 0-7.038 1.060-13.829 3.029-20.221l-0.129 0.486c1.441-4.141 5.31-7.060 9.861-7.060 0.233 0 0.464 0.008 0.694 0.023l-0.031-0.002c0.197-0.014 0.427-0.022 0.658-0.022 4.525 0 8.352 2.986 9.62 7.095l0.019 0.071c1.712 6.070 2.697 13.042 2.697 20.243 0 1.31-0.033 2.613-0.097 3.907l0.007-0.182z" />
<glyph unicode="&#xe937;" horiz-adv-x="1328" d="M1079.001 551.964h26.421v-179.499h-18.769v72.011l1.738 67.101-24.379-138.813h-19.078l-25.392 138.813 1.743-67.101v-72.011h-18.668v179.499h26.31l25.706-147.556z" />
<glyph unicode="&#xe938;" horiz-adv-x="1328" d="M1118.186 481.164q0 27.748 8.689 36.925c5.828 5.712 13.818 9.237 22.631 9.237 0.718 0 1.431-0.023 2.138-0.069l-0.096 0.005q16.003 0 23.21-7.758c5.33-6.811 8.617-15.445 8.819-24.84l0.001-0.046q0.695-7.347 0.705-18.055v-104.089h-21.004v13.251c-2.958-8.558-10.947-14.594-20.344-14.594-0.166 0-0.331 0.002-0.496 0.006h0.025q-26.010 0-26.208 40.589v14.888c-0.008 0.283-0.013 0.615-0.013 0.949 0 8.122 2.706 15.611 7.265 21.616l-0.065-0.089q7.202 9.341 39.73 21.27v11.851q0 19.667-2.858 23.654c-2.064 2.479-5.15 4.046-8.603 4.046-0.401 0-0.797-0.021-1.187-0.062l0.049 0.004c-0.216 0.018-0.467 0.029-0.72 0.029-3.917 0-7.249-2.5-8.49-5.99l-0.019-0.063c-1.549-5.415-2.44-11.634-2.44-18.061 0-1.288 0.036-2.568 0.107-3.839l-0.008 0.177v-5.31h-20.816zM1163.163 456.795c-6.614-2.772-12.247-5.778-17.561-9.232l0.424 0.258c-2.691-1.94-4.871-4.417-6.418-7.286l-0.056-0.114c-1.434-3.518-2.266-7.601-2.266-11.877 0-0.718 0.023-1.43 0.070-2.136l-0.005 0.096v-14.173c-0.054-0.896-0.085-1.944-0.085-2.999 0-5.652 0.889-11.096 2.536-16.201l-0.104 0.373c1.162-3.212 4.186-5.466 7.736-5.466 0.115 0 0.229 0.002 0.343 0.007l-0.016-0.001c0.106-0.003 0.23-0.004 0.356-0.004 3.582 0 6.873 1.25 9.458 3.338l-0.029-0.022c2.431 1.863 4.345 4.282 5.569 7.073l0.045 0.115z" />
<glyph unicode="&#xe939;" horiz-adv-x="1328" d="M1243.144 527.286c0.333-2.736 0.523-5.904 0.523-9.117 0-1.458-0.039-2.906-0.116-4.344l0.009 0.201-0.101-4.489q-18.344 0-26.314-12.749v-124.326h-21.019v152.991h21.009v-17.027c1.562 5.695 4.855 10.473 9.27 13.862l0.062 0.045c4.362 3.109 9.8 4.972 15.674 4.972 0.353 0 0.705-0.007 1.055-0.020l-0.050 0.001z" />
<glyph unicode="&#xe93a;" horiz-adv-x="1328" d="M1254.161 553.895h20.908v-101.159l30.094 72.721h21.12l-32.238-75.579 33.961-77.408h-21.53l-31.407 74.449v-74.454h-20.908z" />
<glyph unicode="&#xe93b;" horiz-adv-x="1328" d="M484.442 123.828h359.115v648.211h-359.115z" />
<glyph unicode="&#xe93c;" horiz-adv-x="1328" d="M507.304 447.933c0 0.155 0 0.338 0 0.522 0 130.831 60.956 247.426 156.016 322.934l0.847 0.65c-69.161 55.020-157.775 88.276-254.158 88.276-226.443 0-410.012-183.569-410.012-410.012 0-0.833 0.002-1.666 0.007-2.498l-0.001 0.128c-0.004-0.664-0.006-1.45-0.006-2.237 0-226.443 183.569-410.012 410.012-410.012 96.308 0 184.859 33.205 254.833 88.79l-0.842-0.646c-95.908 76.157-156.863 192.752-156.863 323.584 0 0.184 0 0.366 0 0.55v-0.028z" />
<glyph unicode="&#xe93d;" horiz-adv-x="1328" d="M1315.182 192.514v15.987h-4.172l-4.773-11.014-4.773 11.014h-4.172v-15.987h3.037v12.082l4.506-10.413h3.037l4.506 10.447v-12.082zM1288.849 192.514v13.35h5.34v2.704h-13.551v-2.704h5.34v-13.35zM1327.997 447.967c0.004-0.664 0.006-1.45 0.006-2.237 0-226.443-183.569-410.012-410.012-410.012-96.308 0-184.859 33.205-254.833 88.79l0.842-0.646c95.865 76.39 156.767 193.136 156.767 324.105s-60.902 247.715-155.931 323.461l-0.836 0.643c69.131 54.94 157.683 88.144 253.99 88.144 226.443 0 410.012-183.569 410.012-410.012 0-0.787-0.002-1.572-0.006-2.358l0.001 0.122z" />
<glyph unicode="&#xe93e;" horiz-adv-x="1328" d="M1328.005 535.631c-0.104 2.868-2.39 5.169-5.243 5.296h-17.625c-2.907-0.024-5.254-2.386-5.254-5.296 0-0.020 0-0.040 0-0.060v0.003-176.85c0.074-2.892 2.371-5.224 5.243-5.353h17.625c2.907 0.024 5.254 2.386 5.254 5.296 0 0.020 0 0.040 0 0.060v-0.003z" />
<glyph unicode="&#xe93f;" horiz-adv-x="1328" d="M1226.394 535.674c-0.066 2.844-2.322 5.139-5.144 5.268h-17.272c-2.852-0.024-5.156-2.342-5.156-5.198 0-0.020 0-0.040 0-0.060v0.003l0.085-105.382c0.187-1.769 0.294-3.821 0.294-5.898 0-9.416-2.194-18.32-6.099-26.229l0.155 0.347c-7.122-11.353-19.571-18.791-33.757-18.791s-26.635 7.437-33.66 18.625l-0.097 0.166c-3.749 7.566-5.942 16.475-5.942 25.897 0 2.072 0.106 4.119 0.313 6.136l-0.021-0.253 0.042 105.367c-0.059 2.846-2.319 5.146-5.144 5.268h-17.271c-2.852-0.024-5.156-2.342-5.156-5.198 0-0.020 0-0.040 0-0.060v0.003l0.099-112.839c-0.041-0.872-0.065-1.894-0.065-2.921 0-15.317 5.23-29.412 14.001-40.598l-0.108 0.143c12.383-15.846 31.496-25.938 52.966-25.938s40.583 10.092 52.855 25.79l0.111 0.148c8.66 11.104 13.884 25.256 13.884 40.628 0 0.966-0.021 1.928-0.061 2.884l0.005-0.136z" />
<glyph unicode="&#xe940;" horiz-adv-x="1328" d="M1027.299 361.267c4.237-4.237 2.825-7.768-3.135-7.768h-18.362c-2.949 0.175-5.594 1.356-7.623 3.201l0.010-0.009-59.986 60.41c-1.174 1.176-1.9 2.799-1.9 4.591 0 3.546 2.841 6.429 6.372 6.496h13.721c2.949-0.175 5.594-1.356 7.623-3.201l-0.010 0.009z" />
<glyph unicode="&#xe941;" horiz-adv-x="1328" d="M987.256 402.17c10.522 10.815 17.010 25.601 17.010 41.902 0 0.956-0.022 1.906-0.067 2.851l0.005-0.134c0.025 0.678 0.039 1.474 0.039 2.274 0 36.515-29.576 66.122-66.080 66.172h-0.005c-0.057 0-0.124 0-0.192 0-36.008 0-65.198-29.19-65.198-65.198 0-1.312 0.039-2.615 0.115-3.907l-0.008 0.178c-0.029-0.714-0.045-1.552-0.045-2.393 0-17.853 7.36-33.986 19.212-45.531l0.014-0.014c11.582-11.846 27.724-19.191 45.582-19.191 11.423 0 22.143 3.005 31.414 8.268l-0.316-0.165zM987.581 368.089c-13.949-9.111-31.016-14.551-49.35-14.605h-0.014c-27.899 0.321-52.853 12.666-69.967 32.086l-0.090 0.104c-13.7 15.661-22.055 36.299-22.055 58.889 0 0.693 0.008 1.385 0.024 2.075l-0.002-0.103c-0.018 0.687-0.029 1.496-0.029 2.308 0 51.094 41.42 92.514 92.514 92.514s92.514-41.42 92.514-92.514c0-1.388-0.030-2.769-0.091-4.142l0.007 0.196c0.013-0.553 0.021-1.206 0.021-1.859 0-23.529-9.655-44.803-25.219-60.077l-0.013-0.013z" />
<glyph unicode="&#xe942;" horiz-adv-x="1328" d="M772.101 353.484h7.288c2.899 0.024 5.241 2.38 5.241 5.282 0 0.020 0 0.040 0 0.060v-0.003 16.017c0 0.017 0 0.037 0 0.057 0 2.903-2.341 5.258-5.238 5.282h-68.449v58.192h68.602c2.911 0.008 5.269 2.37 5.269 5.282 0 0.015 0 0.030 0 0.045v-0.002 16.031c0 0.017 0 0.037 0 0.057 0 2.903-2.341 5.258-5.238 5.282h-68.646v49.167h68.503c2.899 0.024 5.241 2.38 5.241 5.282 0 0.020 0 0.040 0 0.060v-0.003 16.017c0 0.021 0 0.046 0 0.071 0 2.903-2.341 5.258-5.238 5.282h-91.161c-2.899-0.024-5.241-2.38-5.241-5.282 0-0.020 0-0.040 0-0.060v0.003-176.864c0-0.013 0-0.028 0-0.044 0-2.873 2.293-5.21 5.149-5.281h83.919z" />
<glyph unicode="&#xe943;" horiz-adv-x="1328" d="M604.247 540.942h-17.020c-2.863-0.070-5.156-2.408-5.156-5.281 0-0.040 0-0.080 0.001-0.121v0.006l-0.085-124.138-115.735 126.949c-1.211 1.532-3.047 2.523-5.117 2.584h-0.010c-3.079 0-5.932 0-5.932 0-2.828-0.024-5.116-2.302-5.155-5.123v-176.953c0-0.007 0-0.016 0-0.024 0-2.858 2.228-5.195 5.041-5.371l0.016-0.001h17.302c2.863 0.070 5.156 2.408 5.156 5.281 0 0.040 0 0.080-0.001 0.121v-0.006l-0.17 127.232 119.378-130.382s2.316-2.246 3.658-2.246h3.701c2.815 0.031 5.093 2.289 5.155 5.093v0.006l0.127 3.178v173.785c-0.026 2.889-2.29 5.242-5.141 5.409l-0.015 0.001z" />
<glyph unicode="&#xe944;" horiz-adv-x="1328" d="M37.778 540.448l155.367 78.008c3.1 1.594 6.764 2.529 10.647 2.529 6.787 0 12.908-2.856 17.224-7.433l0.011-0.012 133.489-146.893c3.677-3.959 5.933-9.281 5.933-15.131 0-6.073-2.431-11.577-6.374-15.593l0.003 0.003-144.28-151.723c-6.106-5.694-14.326-9.19-23.364-9.19-10.414 0-19.744 4.642-26.033 11.969l-0.039 0.046-139.901 184.576c-5.755 7.542-9.221 17.1-9.221 27.467 0 18.256 10.746 34.002 26.257 41.257l0.279 0.118z" />
<glyph unicode="&#xe945;" horiz-adv-x="1328" d="M9.035 468.456l101.059 134.859c4.339 5.503 11.006 9.003 18.49 9.003 3.149 0 6.154-0.62 8.898-1.744l-0.157 0.057 190.099-75.17c8.963-3.295 15.241-11.758 15.241-21.688 0-2.092-0.279-4.118-0.801-6.045l0.037 0.161-55.678-196.017c-4.98-12.641-17.084-21.424-31.24-21.424-5.216 0-10.152 1.192-14.553 3.319l0.2-0.087-213.898 106.074c-15.899 7.336-26.734 23.139-26.734 41.474 0 10.261 3.394 19.729 9.121 27.344l-0.084-0.117z" />
<glyph unicode="&#xe946;" horiz-adv-x="1328" d="M78.146 560.674l81.709 41.045 112.062-44.322 64.040-70.48-28.333-99.929-81.836-85.961-121.864 60.438-83.475 110.169c-1.457 1.899-2.839 4.038-4.043 6.287l-0.124 0.252z" />
<glyph unicode="&#xe947;" glyph-name="Pinterest" horiz-adv-x="960" d="M586.048 218.816c-61.92 5.12-87.456 35.104-135.968 64.48-26.816-139.808-59.36-273.248-155.136-343.456-30.016 210.688 43.424 368.992 77.888 537.536-58.72 97.664 6.4 294.944 128.96 246.432 150.656-59.36-130.24-363.264 58.080-401.568 197.28-39.584 277.696 342.176 155.136 466.048-176.832 179.392-513.92 3.84-472.416-252.8 10.208-62.56 74.688-81.728 26.176-168.544-112.992 24.896-146.848 114.272-142.368 233.024 7.008 195.36 174.912 331.328 343.456 350.496 213.216 23.616 413.056-77.888 440.512-278.336 30.656-226.624-96.384-471.136-324.32-453.28z" />
<glyph unicode="&#xe948;" glyph-name="profile" horiz-adv-x="1328" d="M686.26 870.957c-1.162 0.021-2.533 0.034-3.907 0.034-54.396 0-104.324-19.128-143.425-51.024l0.41 0.324c-31.597-24.748-52.081-62.432-53.421-104.945l-0.005-0.216c1.345-42.729 21.829-80.413 53.124-104.932l0.303-0.228c38.691-31.572 88.619-50.699 143.015-50.699 1.374 0 2.745 0.012 4.112 0.036l-0.206-0.003c1.162-0.021 2.533-0.034 3.907-0.034 54.396 0 104.324 19.128 143.425 51.024l-0.41-0.324c31.597 24.748 52.081 62.432 53.421 104.945l0.005 0.216c-1.345 42.729-21.829 80.413-53.124 104.932l-0.303 0.228c-38.691 31.572-88.619 50.699-143.015 50.699-1.374 0-2.745-0.012-4.112-0.036l0.206 0.003zM686.26 960c159.833 0 289.391-109.613 289.391-244.87s-129.558-244.87-289.391-244.87-289.391 109.613-289.391 244.87 129.558 244.87 289.391 244.87zM1057.393 25.043c-16.342 78.372-54.999 145.917-108.946 197.639l-0.133 0.126c-73.793 70.483-174 113.861-284.338 113.861s-210.545-43.378-284.496-114.011l0.158 0.15c-54.062-51.854-92.704-119.398-108.602-195.303l-0.431-2.462h786.788zM1153.471-64h-978.944c-0.267 5.476-0.267 10.641-0.267 15.315 0 0.004 0 0.009 0 0.014 0 131.835 54.987 250.828 143.277 335.294l0.172 0.163c88.865 85.974 210.107 138.959 343.724 138.959 0.902 0 1.803-0.002 2.704-0.007l-0.139 0.001c0.762 0.004 1.664 0.007 2.566 0.007 133.617 0 254.859-52.985 343.861-139.090l-0.136 0.131c88.462-84.63 143.449-203.622 143.449-335.458 0-0.005 0-0.010 0-0.015v0.001c0-5.075 0-10.195-0.267-15.271z" />
<glyph unicode="&#xe949;" glyph-name="return" horiz-adv-x="1328" d="M1043.241 959.896c11.611-1.236 21.197-8.784 25.343-19.102l0.073-0.207 105.382-286.567c1.163-3.039 1.849-6.552 1.877-10.223v-165.641c0.011-0.302 0.017-0.657 0.017-1.014 0-16.637-13.487-30.124-30.124-30.124s-30.124 13.487-30.124 30.124c0 0.357 0.006 0.712 0.018 1.065l-0.001-0.051v135.505h-903.405v-617.485h903.405v301.272h-376.428v-75.292c-1.508-16.273-15.095-28.914-31.634-28.914-5.29 0-10.279 1.294-14.666 3.582l0.176-0.083-165.629 105.382c-7.767 5.841-12.736 15.040-12.736 25.399s4.97 19.557 12.655 25.341l0.081 0.058 165.629 105.382c4.68 3.109 10.429 4.959 16.61 4.959 1.276 0 2.534-0.079 3.769-0.232l-0.148 0.015c14.604-2.565 25.605-15.018 25.893-30.093v-75.322h406.551c16.383-0.616 29.508-13.74 30.122-30.066l0.002-0.057v-361.383c-0.616-16.383-13.74-29.508-30.066-30.122l-0.057-0.002h-963.653c-16.383 0.616-29.508 13.74-30.122 30.066l-0.002 0.057v677.664c0.002 2.68 0.35 5.277 1.003 7.751l-0.047-0.212 75.292 286.567c3.899 12.724 15.435 21.861 29.14 22.106h785.804zM1019.36 899.648h-310.073v-225.842h393.349zM649.040 899.648h-368.445l-59.292-225.842h427.702zM679.163 378.299l-79.523-50.831 79.523-50.797z" />
<glyph unicode="&#xe94a;" glyph-name="Search" horiz-adv-x="704" d="M315.631 800.010c174.264-0.032 315.522-141.308 315.522-315.577 0-174.288-141.288-315.577-315.577-315.577s-315.577 141.288-315.577 315.577c0 87.159 35.334 166.064 92.457 223.174v0c56.792 57.079 135.402 92.404 222.262 92.404 0.32 0 0.642 0 0.962-0.001h-0.050zM315.631 217.389c147.428 0.076 266.912 119.606 266.912 267.044 0 147.485-119.559 267.044-267.044 267.044s-267.044-119.559-267.044-267.044v0c0.175-147.459 119.704-266.944 267.167-267.044h0.009zM679.742 95.99c-0.002 0-0.005 0-0.008 0-6.702 0-12.769 2.725-17.151 7.127l-158.406 158.406c-3.986 4.314-6.43 10.103-6.43 16.462 0 13.414 10.875 24.289 24.289 24.289 6.36 0 12.148-2.445 16.479-6.444l-0.016 0.014 158.405-158.405c4.387-4.394 7.099-10.461 7.099-17.16 0-13.405-10.859-24.273-24.258-24.289h-0.002z" />
<glyph unicode="&#xe94b;" glyph-name="search_1" d="M463.299 21.555c-257.976 0-463.299 210.592-463.299 463.299 0 257.976 210.592 463.299 463.299 463.299s463.299-210.592 463.299-463.299c0-252.709-205.328-463.299-463.299-463.299zM463.299 911.303c-231.65 0-426.446-189.53-426.446-426.446s189.53-426.446 426.446-426.446c231.65 0 426.446 189.53 426.446 426.446s-189.53 426.446-426.446 426.446zM1005.571-52.152c-5.266 0-10.531 0-15.793 5.266l-221.121 200.061c-10.531 5.266-10.531 21.060 0 26.324 5.266 10.531 21.060 10.531 26.324 0l221.121-200.061c10.531-5.266 10.531-21.060 0-26.324 0-5.266-5.266-5.266-10.531-5.266z" />
<glyph unicode="&#xe94c;" glyph-name="spinner" d="M1024 431.489c-1.319 69.011-16.291 137.807-43.944 200.712-27.562 62.96-67.566 119.994-116.675 167.124-49.080 47.165-107.285 84.45-170.286 109.047-62.965 24.693-130.665 36.488-197.549 35.058-66.893-1.323-133.488-15.868-194.387-42.685-60.946-26.728-116.159-65.51-161.771-113.098-45.645-47.563-81.704-103.945-105.47-164.934-23.857-60.96-35.225-126.458-33.798-191.224 1.327-64.777 15.445-129.17 41.424-188.062 25.894-58.935 63.452-112.325 109.52-156.418 46.044-44.128 100.605-78.963 159.583-101.893 58.954-23.021 122.253-33.959 184.899-32.539 62.659 1.331 124.849 15.022 181.735 40.165 56.922 25.062 108.494 61.392 151.070 105.943 42.609 44.526 76.217 97.265 98.315 154.232 13.453 34.533 22.583 70.598 27.395 107.134 1.286-0.074 2.578-0.124 3.883-0.124 36.482 0 66.057 29.573 66.057 66.057 0 1.854-0.097 3.687-0.246 5.503h0.246zM919.038 256.079c-24.226-54.912-59.331-104.659-102.365-145.717-43.009-41.089-93.925-73.474-148.88-94.74-54.939-21.343-113.834-31.431-172.247-30.017-58.423 1.34-116.215 14.177-169.085 37.646-52.897 23.394-100.823 57.273-140.365 98.788-39.57 41.49-70.73 90.585-91.16 143.527-20.509 52.932-30.167 109.627-28.759 165.922 1.344 56.305 13.756 111.896 36.387 162.758 22.56 50.884 55.217 96.99 95.211 135.014 39.975 38.053 87.247 67.987 138.176 87.583 50.924 19.673 105.418 28.906 159.595 27.5 54.187-1.348 107.578-13.333 156.433-35.128 48.874-21.726 93.157-53.157 129.661-91.635 36.534-38.455 65.241-83.907 84.006-132.824 18.834-48.915 27.643-101.209 26.241-153.268h0.246c-0.149-1.817-0.246-3.65-0.246-5.503 0-34.073 25.795-62.108 58.921-65.669-6.424-35.941-17.061-71.030-31.769-104.238z" />
<glyph unicode="&#xe94d;" glyph-name="store" horiz-adv-x="1328" d="M1162.443-63.946h-985.633c-11.676 0.276-21.068 9.669-21.344 21.318v570.99c0 11.789 9.556 21.344 21.344 21.344s21.344-9.556 21.344-21.344v0-549.619h942.997v546.685c0 11.789 9.556 21.344 21.344 21.344s21.344-9.556 21.344-21.344v0-568.082c-0.262-11.681-9.664-21.082-21.319-21.344h-0.025zM791.77-63.946h-245.701c-11.676 0.276-21.068 9.669-21.344 21.318v363.548c0.276 11.676 9.669 21.068 21.318 21.344h245.727c11.676-0.276 21.068-9.669 21.344-21.318v-363.601c0.002-0.112 0.003-0.245 0.003-0.378 0-11.553-9.365-20.917-20.917-20.917-0.151 0-0.302 0.002-0.453 0.005h0.022zM567.387-21.258h203.093v320.861h-203.093zM1136.855 505.443c-38.809 0.528-73.14 19.242-94.923 47.99l-0.219 0.302c-20.98-29.372-54.959-48.293-93.356-48.293-0.131 0-0.263 0-0.394 0.001h0.020c-38.809 0.528-73.14 19.242-94.923 47.99l-0.219 0.302c-20.98-29.372-54.959-48.293-93.356-48.293-0.131 0-0.263 0-0.394 0.001h0.020c-38.462 0.196-72.481 19.045-93.498 47.957l-0.232 0.335c-20.98-29.372-54.959-48.293-93.356-48.293-0.131 0-0.263 0-0.394 0.001h0.020c-38.462 0.196-72.481 19.045-93.498 47.957l-0.232 0.335c-20.98-29.372-54.959-48.293-93.356-48.293-0.131 0-0.263 0-0.394 0.001h0.020c-39.139 0.43-73.665 19.795-94.901 49.353l-0.241 0.353c-21.513-29.959-56.121-49.34-95.272-49.706h-0.057c-63.763 0.129-115.515 51.375-116.46 114.931l-0.001 0.089v125.105c-0.204 1.016-0.32 2.184-0.32 3.38 0 9.932 8.051 17.983 17.983 17.983 0.282 0 0.562-0.006 0.84-0.019l-0.039 0.001h1136.165c11.676-0.276 21.068-9.669 21.344-21.318v-124.998c-0.422-63.615-52.091-115.022-115.765-115.022-0.245 0-0.489 0.001-0.734 0.002h0.038zM1064.418 620.463c1.107-39.939 33.748-71.893 73.852-71.893s72.744 31.954 73.849 71.791l0.002 0.102v103.76h-1094.97v-103.68c1.107-39.939 33.748-71.893 73.852-71.893s72.744 31.954 73.849 71.791l0.002 0.102c0 11.789 9.556 21.344 21.344 21.344s21.344-9.556 21.344-21.344v0c0.78-39.404 32.907-71.047 72.424-71.047s71.644 31.644 72.423 70.975l0.001 0.073c0 11.789 9.556 21.344 21.344 21.344s21.344-9.556 21.344-21.344v0c0.18-39.835 32.355-72.095 72.141-72.411h0.030c40.272 0.051 73 32.283 73.85 72.358l0.001 0.079c0 11.789 9.556 21.344 21.344 21.344s21.344-9.556 21.344-21.344v0c0.78-39.404 32.907-71.047 72.424-71.047s71.644 31.644 72.423 70.975l0.001 0.073c0 11.789 9.556 21.344 21.344 21.344s21.344-9.556 21.344-21.344v0c0-40.397 32.748-73.145 73.145-73.145s73.145 32.748 73.145 73.145v0c0.276 11.676 9.669 21.068 21.318 21.344h0.026c11.393 0 25.613-9.925 25.613-21.344zM1232.025 724.251h-1136.165c-0.035 0-0.076 0-0.118 0-11.641 0-21.077 9.437-21.077 21.077 0 2.635 0.484 5.157 1.367 7.483l-0.048-0.145 70.997 193.141c3.002 8.27 10.747 14.091 19.864 14.194h994.156c9.131-0.104 16.876-5.925 19.829-14.046l0.047-0.148 70.997-193.141c0.924-2.216 1.461-4.791 1.461-7.491 0-4.699-1.626-9.019-4.347-12.426l0.031 0.040c-3.709-5.197-9.719-8.545-16.511-8.545-0.189 0-0.378 0.003-0.566 0.008l0.028-0.001zM127.103 766.94h1075.093l-55.389 150.532h-965.836z" />
<glyph unicode="&#xe94e;" glyph-name="Tiktok-1" horiz-adv-x="960" d="M929.349 703.604c-58.53 0-112.534 19.39-155.901 52.1-49.737 37.498-85.472 92.503-98.091 155.901-3.125 15.664-4.807 31.829-4.968 48.395h-167.198v-456.865l-0.2-250.246c0-66.903-43.567-123.631-103.96-143.582-17.527-5.789-36.456-8.533-56.167-7.451-25.159 1.382-48.735 8.974-69.227 21.233-43.607 26.080-73.173 73.393-73.974 127.517-1.262 84.591 67.124 153.557 151.654 153.557 16.686 0 32.71-2.724 47.714-7.672v169.762c-15.824 2.344-31.929 3.566-48.214 3.566-92.523 0-179.056-38.459-240.912-107.746-46.752-52.361-74.795-119.164-79.122-189.212-5.669-92.022 28.003-179.497 93.304-244.037 9.595-9.475 19.67-18.268 30.207-26.381 55.986-43.086 124.432-66.443 196.523-66.443 16.285 0 32.39 1.202 48.214 3.545 67.344 9.975 129.48 40.803 178.515 89.278 60.253 59.552 93.544 138.614 93.905 222.764l-0.861 373.697c28.744-22.174 60.173-40.523 93.905-54.765 52.461-22.134 108.087-33.351 165.335-33.331v166.457c0.040-0.040-0.441-0.040-0.481-0.040z" />
<glyph unicode="&#xe94f;" glyph-name="trash" d="M254.431-63.998c-50.257 0-87.951 37.693-94.233 87.951l-25.129 785.275h-43.976c-12.564 0-25.129 12.564-25.129 25.129s12.564 25.129 25.129 25.129h276.417v50.257c0 25.129 25.129 50.257 50.257 50.257h188.466c25.129 0 50.257-25.129 50.257-50.257v-43.976h276.417c12.564 0 25.129-12.564 25.129-25.129s-12.564-25.129-25.129-25.129h-43.976l-31.411-785.275c0-50.257-43.976-87.951-94.233-87.951l-508.859-6.283zM216.738 23.953c0-18.847 18.847-37.693 37.693-37.693h515.141c18.847 0 37.693 18.847 37.693 37.693l31.411 785.275h-653.349l31.411-785.275zM417.769 859.487h188.466v43.976h-188.466v-43.976z" />
<glyph unicode="&#xe950;" glyph-name="truck" horiz-adv-x="1328" d="M1308.093 405.413l-117.891 197.024c-24.621 40.373-68.403 66.929-118.39 66.975h-131.12v82.933c0 76.413-61.945 138.358-138.358 138.358h-802.336v-774.675h141.094c13.306-63.627 68.938-110.731 135.571-110.731s122.265 47.104 135.414 109.83l0.158 0.9h558.854c13.306-63.627 68.938-110.731 135.571-110.731s122.265 47.104 135.414 109.83l0.158 0.9h85.771v218.556c0 0.123 0.001 0.268 0.001 0.413 0 26.056-7.412 50.381-20.241 70.981l0.33-0.569zM276.663 60.911c-35.773 0.271-66.172 22.983-77.833 54.744l-0.186 0.579c-3.161 8.218-4.992 17.726-4.992 27.661s1.831 19.443 5.174 28.205l-0.182-0.543c11.405 32.752 42.017 55.834 78.019 55.834s66.614-23.083 77.844-55.256l0.176-0.578c3.161-8.218 4.992-17.726 4.992-27.661s-1.831-19.443-5.174-28.205l0.182 0.543c-11.784-32.423-42.2-55.223-77.983-55.525h-0.037zM885.318 171.303h-473.082c-13.306 63.627-68.938 110.731-135.571 110.731s-122.265-47.104-135.414-109.83l-0.158-0.9h-85.771v664.080h747.013c45.831 0 82.984-37.154 82.984-82.984v0zM1106.66 60.657c-35.773 0.271-66.172 22.983-77.833 54.744l-0.186 0.579c-3.161 8.218-4.992 17.726-4.992 27.661s1.831 19.443 5.174 28.205l-0.182-0.543c11.405 32.752 42.017 55.834 78.019 55.834s66.614-23.083 77.844-55.256l0.176-0.578c3.161-8.218 4.992-17.726 4.992-27.661s-1.831-19.443-5.174-28.205l0.182 0.543c-11.864-32.318-42.259-55.010-77.987-55.272h-0.032zM1272.681 171.303h-30.397c-13.306 63.627-68.938 110.731-135.571 110.731s-122.265-47.104-135.414-109.83l-0.158-0.9h-30.397v442.736h131.164c30.017-0.14 56.253-16.196 70.718-40.158l0.208-0.373 118.397-196.417c7.29-12.148 11.602-26.807 11.602-42.472 0-0.048 0-0.095 0-0.142v0.007z" />
<glyph unicode="&#xe951;" glyph-name="vtex" horiz-adv-x="2994" d="M1109.023 959.947h-894.902c-69.28 0-113.681-75.022-81.528-136.264l89.567-170.33h-162.292c-44.783 0-73.873-46.314-52.821-86.122l287.838-543.907c22.201-42.487 83.059-42.104 105.643 0.383l78.084 147.364 97.988-185.641c34.448-65.452 128.226-65.452 162.675 0l448.982 843.229c31.387 59.711-11.866 131.288-79.232 131.288zM707.121 600.531l-193.679-364.008c-14.927-28.324-55.118-27.942-70.046 0l-191.382 362.477c-14.163 26.41 5.358 58.18 35.214 58.18h385.826c29.090 0 47.463-31.004 34.066-56.649zM2058.66 576.418h-101.815v-349.464c0-6.507-5.358-11.866-11.866-11.866h-78.85c-6.507 0-11.866 5.358-11.866 11.866v349.464h-102.58c-6.507 0-11.866 4.975-11.866 11.483v62.008c0 6.507 5.358 11.483 11.866 11.483h307.359c6.507 0 12.632-4.975 12.632-11.483v-62.008c-0.383-6.507-6.507-11.483-13.014-11.483zM2385.923 217.385c-21.052-3.062-56.266-7.655-121.336-7.655-77.318 0-145.833 19.904-145.833 128.992v199.42c0 109.471 68.898 128.609 146.599 128.609 64.687 0 99.519-4.975 120.57-7.655 8.421-1.148 11.866-4.211 11.866-11.866v-55.883c0-6.507-5.358-11.866-11.866-11.866h-126.695c-28.324 0-38.276-9.569-38.276-40.956v-54.735h160.378c6.507 0 11.866-5.358 11.866-11.866v-57.032c0-6.507-5.358-11.866-11.866-11.866h-160.378v-63.538c0-31.387 10.335-40.956 38.276-40.956h126.695c6.507 0 11.866-5.358 11.866-11.866v-55.883c0.383-8.421-3.445-12.249-11.866-13.397zM2839.115 215.088h-95.308c-7.655 0-11.483 2.297-15.693 9.186l-83.059 131.288-75.022-128.609c-4.211-7.272-8.421-11.866-14.927-11.866h-88.801c-6.124 0-9.186 3.445-9.186 7.655 0 1.148 0.766 3.062 1.148 4.211l130.139 216.644-130.905 206.309c-0.766 1.148-1.148 2.297-1.148 3.445 0 4.211 4.211 7.655 9.186 7.655h96.839c6.507 0 11.483-6.124 14.927-11.483l76.936-121.336 73.873 121.719c3.062 5.358 8.421 11.483 14.927 11.483h88.801c4.975 0 9.186-3.445 9.186-7.655 0-1.148-0.766-2.297-1.148-3.445l-130.905-207.075 136.264-215.497c1.148-2.297 1.914-4.211 1.914-6.124-0.383-4.211-3.445-6.507-8.038-6.507zM1595.516 659.86c-4.211 0-8.038-3.062-9.186-7.272l-87.27-322.67c-1.148-6.507-3.062-9.186-8.421-9.186s-7.272 2.297-8.421 9.186l-87.27 322.67c-0.766 4.211-4.594 7.272-9.186 7.272h-85.739c-6.124 0-10.335-5.741-9.186-11.483 0 0 106.408-370.132 107.557-373.577 14.163-44.017 48.611-65.070 92.629-65.070 41.722 0 78.084 22.201 92.629 65.070 1.531 4.975 105.643 373.577 105.643 373.577 1.148 5.741-3.062 11.483-9.186 11.483h-84.591zM2981.886 594.407c-8.421-8.421-18.373-12.632-29.856-12.632s-21.818 4.211-29.856 12.632c-8.038 8.421-12.249 18.373-12.249 30.238 0 11.483 4.211 21.818 12.249 29.856 8.421 8.421 18.373 12.249 29.856 12.249 11.866 0 21.818-4.211 29.856-12.249 8.421-8.421 12.249-18.373 12.249-29.856 0-12.249-3.828-22.201-12.249-30.238zM2926.003 649.908c-6.889-7.272-10.718-15.693-10.718-25.645 0-10.335 3.445-18.755 10.718-26.028 6.889-7.272 15.693-10.718 25.645-10.718s18.755 3.445 25.645 10.718c7.272 7.272 10.718 15.693 10.718 26.028 0 9.952-3.445 18.755-10.718 25.645-7.272 7.272-15.693 10.718-25.645 10.718s-18.373-3.445-25.645-10.718zM2950.882 647.611c5.741 0 9.952-0.383 12.632-1.531 4.975-1.914 7.272-6.124 7.272-11.866 0-4.211-1.531-7.272-4.594-9.186-1.531-1.148-3.828-1.914-6.889-2.297 3.828-0.766 6.124-1.914 8.038-4.594 1.531-2.297 2.68-4.975 2.68-7.272v-3.062c0-1.148 0-2.297 0-3.445s0.383-1.914 0.383-2.297l0.383-0.766h-7.655v6.124c0 5.358-1.531 8.803-4.211 10.718-1.914 1.148-4.594 1.531-9.186 1.531h-6.507v-18.373h-8.038v46.314h15.693zM2959.686 640.339c-1.914 1.148-5.358 1.914-9.952 1.914h-6.889v-16.841h7.272c3.445 0 6.124 0.383 7.655 1.148 3.062 1.148 4.975 3.828 4.975 7.272 0.383 3.062-0.766 5.358-3.062 6.507z" />
<glyph unicode="&#xe952;" glyph-name="wallet" horiz-adv-x="1328" d="M180.468 960c-62.738-0.227-113.536-51.024-113.764-113.741v-810.716c0.241-54.878 44.664-99.302 99.52-99.543h995.529c54.878 0.241 99.302 44.664 99.543 99.52v654.213c-0.241 54.878-44.664 99.302-99.52 99.543h-71.125v142.203c-0.594 15.463-12.978 27.847-28.386 28.439l-0.055 0.002zM180.468 903.12h853.276v-113.87h-853.276c-31.414 0-56.881 25.467-56.881 56.881s25.467 56.881 56.881 56.881v0zM123.586 748.029c16.282-9.726 35.902-15.498 56.867-15.554h0.016c320.345 0.293 705.977 0 981.286 0 0.216 0.004 0.471 0.006 0.727 0.006 23.178 0 41.968-18.789 41.968-41.968 0-0.256-0.002-0.51-0.007-0.765l0.001 0.038v-142.203h-412.444c-39.159-0.27-70.831-31.942-71.101-71.077v-227.578c0.27-39.159 31.942-70.831 71.077-71.101h412.443v-142.203c0.004-0.216 0.006-0.471 0.006-0.727 0-23.178-18.789-41.968-41.968-41.968-0.256 0-0.51 0.002-0.765 0.007l0.038-0.001h-995.479c-0.216-0.004-0.471-0.006-0.727-0.006-23.178 0-41.968 18.789-41.968 41.968 0 0.256 0.002 0.51 0.007 0.765l-0.001-0.038zM791.998 490.729h412.417v-255.993h-412.417c-0.188-0.009-0.407-0.015-0.628-0.015-7.515 0-13.606 6.092-13.606 13.606 0 0.221 0.005 0.441 0.016 0.659l-0.001-0.031v227.5c-0.009 0.188-0.015 0.407-0.015 0.628 0 7.515 6.092 13.606 13.606 13.606 0.221 0 0.441-0.005 0.659-0.016l-0.031 0.001zM934.201 434.274c-39.269 0-71.102-31.833-71.102-71.102s31.833-71.102 71.102-71.102c39.269 0 71.102 31.833 71.102 71.102v0c-0.27 39.139-31.933 70.793-71.050 71.048h-0.024zM934.201 377.393c7.854 0 14.22-6.367 14.22-14.22s-6.367-14.22-14.22-14.22c-7.854 0-14.22 6.367-14.22 14.22v0c-0.003 0.105-0.005 0.229-0.005 0.354 0 7.633 6.188 13.82 13.82 13.82 0.152 0 0.303-0.002 0.453-0.007l-0.022 0.001z" />
<glyph unicode="&#xe953;" glyph-name="Whatsapp" horiz-adv-x="992" d="M847.339 801.578c-93.262 93.457-217.287 144.858-349.489 144.858-272.193 0-493.763-221.57-493.763-493.958 0-87.032 22.78-172.116 66.004-246.882l-70.093-256.033 261.874 68.73c72.234-39.33 153.425-60.163 235.978-60.163h0.195c0 0 0 0 0 0 272.193 0 493.958 221.57 493.958 493.958 0 132.008-51.401 256.033-144.663 349.489zM498.044 41.463v0c-73.792 0-146.026 19.86-209.11 57.242l-14.992 8.956-155.372-40.693 41.471 151.478-9.735 15.576c-41.277 65.225-62.889 140.769-62.889 218.455 0 226.438 184.188 410.626 410.82 410.626 109.617 0 212.809-42.834 290.3-120.326 77.491-77.686 120.131-180.683 120.131-290.495-0.195-226.633-184.382-410.82-410.626-410.82zM723.119 349.092c-12.266 6.23-73.013 36.020-84.306 40.109s-19.47 6.23-27.842-6.23c-8.177-12.266-31.931-40.109-39.135-48.481-7.204-8.177-14.408-9.346-26.674-3.115s-52.18 19.275-99.298 61.331c-36.604 32.71-61.526 73.208-68.73 85.474s-0.779 19.081 5.452 25.117c5.646 5.452 12.266 14.408 18.497 21.612s8.177 12.266 12.266 20.638c4.089 8.177 2.142 15.381-0.974 21.612s-27.842 66.977-37.967 91.704c-9.93 24.143-20.249 20.833-27.842 21.222-7.204 0.389-15.381 0.389-23.559 0.389s-21.612-3.115-32.905-15.381c-11.293-12.266-43.224-42.25-43.224-102.997s44.197-119.352 50.428-127.724c6.23-8.177 87.032-132.981 210.862-186.329 29.4-12.656 52.375-20.249 70.287-26.090 29.595-9.346 56.463-7.983 77.686-4.868 23.754 3.505 73.013 29.789 83.332 58.605s10.319 53.543 7.204 58.605c-2.921 5.452-11.098 8.567-23.559 14.797z" />
<glyph unicode="&#xe954;" glyph-name="Youtube" horiz-adv-x="960" d="M950.251 639.907c0 0-9.375 66.188-38.25 95.25-36.563 38.25-77.438 38.438-96.188 40.688-134.25 9.75-335.813 9.75-335.813 9.75h-0.375c0 0-201.563 0-335.813-9.75-18.75-2.25-59.625-2.438-96.188-40.688-28.875-29.063-38.063-95.25-38.063-95.25s-9.563-77.625-9.563-155.438v-72.75c0-77.625 9.563-155.438 9.563-155.438s9.375-66.188 38.063-95.25c36.563-38.25 84.563-36.938 105.938-41.063 76.875-7.313 326.438-9.563 326.438-9.563s201.751 0.375 336.001 9.938c18.75 2.25 59.625 2.438 96.188 40.688 28.875 29.063 38.25 95.25 38.25 95.25s9.563 77.625 9.563 155.438v72.75c-0.188 77.625-9.75 155.438-9.75 155.438zM380.624 323.406v269.813l259.313-135.375-259.313-134.438z" />
</font>
</defs>
</svg>
